<svg width="16" height="16" viewBox="0 0 16 16" xmlns="http://www.w3.org/2000/svg"><g fill="none" fill-rule="evenodd"><path d="M0 0h16v16H0z"/><path d="M7.792 1a3.792 3.792 0 1 1-.545 7.545A6.499 6.499 0 0 0 1.5 15a.5.5 0 1 1-1 0 7.503 7.503 0 0 1 5.107-7.11A3.792 3.792 0 0 1 7.792 1zm3.5 7.259A7.5 7.5 0 0 1 15.5 15a.5.5 0 1 1-1 0 6.5 6.5 0 0 0-3.648-5.843.5.5 0 0 1 .44-.898zm-3.5-6.176a2.708 2.708 0 1 0 0 5.417 2.708 2.708 0 0 0 0-5.417z" fill-opacity=".6" fill="#000" fill-rule="nonzero"/></g></svg>