<svg version="1.1" xmlns="http://www.w3.org/2000/svg" width="24" height="24" viewBox="0 0 24 24">
<path d="M11.688 1.5c3.14 0.002 5.684 2.548 5.684 5.688 0 3.141-2.547 5.688-5.688 5.688-0.287 0-0.569-0.021-0.845-0.062l0.031 0.004c-4.876 0.585-8.62 4.696-8.62 9.682v0c0 0.414-0.336 0.75-0.75 0.75s-0.75-0.336-0.75-0.75v0c0-4.929 3.169-9.119 7.581-10.641l0.079-0.024c-1.464-1.043-2.408-2.735-2.408-4.647 0-3.141 2.545-5.687 5.685-5.688h0zM16.938 12.389c3.768 1.871 6.312 5.693 6.312 10.108 0 0.001 0 0.002 0 0.003v-0c0 0.414-0.336 0.75-0.75 0.75s-0.75-0.336-0.75-0.75v0c0-0.001 0-0.002 0-0.003 0-3.828-2.206-7.14-5.415-8.736l-0.057-0.025c-0.251-0.125-0.42-0.379-0.42-0.673 0-0.414 0.336-0.75 0.75-0.75 0.12 0 0.234 0.028 0.334 0.078l-0.004-0.002zM11.688 3.125c-2.244 0-4.063 1.819-4.063 4.063s1.819 4.063 4.063 4.063v0c2.244 0 4.063-1.819 4.063-4.063s-1.819-4.063-4.063-4.063v0z"></path>
</svg>
