<svg version="1.1" xmlns="http://www.w3.org/2000/svg" width="24" height="24" viewBox="0 0 24 24">
<path d="M19.83 3.759c0.999 0 1.819 0.772 1.894 1.752l0.006 0.148v5.59c0 0.387-0.313 0.7-0.7 0.7-0.354 0-0.647-0.263-0.694-0.605l-0.006-0.095-0.001-3.022h-16.768v10.173c0 0.245 0.177 0.45 0.41 0.492l0.090 0.008h15.769c0.245 0 0.45-0.177 0.492-0.41l0.008-0.090v-4.146c0-0.387 0.313-0.7 0.7-0.7 0.354 0 0.647 0.263 0.694 0.605l0.006 0.095v4.146c0 0.999-0.772 1.819-1.752 1.894l-0.148 0.006h-15.769c-0.999 0-1.819-0.772-1.894-1.752l-0.006-0.148v-12.741c0-0.999 0.772-1.819 1.752-1.894l0.148-0.006h15.769zM13.698 10.166c0.31 0.166 0.443 0.532 0.328 0.853l-0.042 0.095-2.883 5.366c-0.183 0.341-0.607 0.468-0.948 0.285-0.31-0.166-0.443-0.532-0.328-0.853l0.042-0.095 2.883-5.366c0.183-0.341 0.607-0.468 0.948-0.285zM8.801 11.772c0.246 0.246 0.271 0.63 0.074 0.903l-0.074 0.087-1.388 1.387 1.388 1.388c0.246 0.246 0.271 0.63 0.074 0.903l-0.074 0.087c-0.246 0.246-0.63 0.271-0.903 0.074l-0.087-0.074-1.882-1.882c-0.246-0.246-0.271-0.63-0.074-0.903l0.074-0.087 1.882-1.883c0.273-0.273 0.717-0.273 0.99 0zM15.998 10.298l0.087 0.074 1.883 1.883c0.246 0.246 0.271 0.63 0.074 0.903l-0.074 0.087-1.883 1.882c-0.273 0.273-0.717 0.273-0.99 0-0.246-0.246-0.271-0.63-0.074-0.903l0.074-0.087 1.387-1.388-1.387-1.387c-0.246-0.246-0.271-0.63-0.074-0.903l0.074-0.087c0.246-0.246 0.63-0.271 0.903-0.074zM19.83 5.159h-15.769c-0.245 0-0.45 0.177-0.492 0.41l-0.008 0.090v1.168h16.768l0.001-1.168c0-0.245-0.177-0.45-0.41-0.492l-0.090-0.008z"></path>
</svg>
