<svg version="1.1" xmlns="http://www.w3.org/2000/svg" width="32" height="32" viewBox="0 0 32 32">
<path d="M19.564 3.599l0.134 0.023 0.153 0.050 0.261 0.11c1.305 0.499 2.473 1.144 3.527 1.995l0.39 0.329 0.233 0.245c0.177 0.186 0.274 0.432 0.275 0.685l-0.011 0.152-0.411 2.723c-0.086 0.572 0.205 1.127 0.709 1.385l0.143 0.063 2.471 0.923c0.234 0.087 0.423 0.257 0.535 0.472l0.058 0.134 0.038 0.143 0.156 0.824c0.242 1.439 0.242 2.915 0.001 4.391l-0.102 0.554-0.050 0.324c-0.042 0.266-0.189 0.5-0.402 0.653l-0.112 0.070-0.142 0.063-2.39 0.836c-0.541 0.189-0.895 0.7-0.893 1.261l0.009 0.154 0.326 2.744c0.023 0.197-0.012 0.394-0.1 0.567l-0.075 0.125-0.093 0.114-0.28 0.291c-0.396 0.364-0.84 0.7-1.304 0.996l-0.352 0.215-0.395 0.236c-0.401 0.227-0.821 0.428-1.245 0.598l-0.426 0.159-0.291 0.122c-0.303 0.127-0.646 0.097-0.919-0.075l-0.112-0.082-1.967-1.663c-0.463-0.391-1.124-0.417-1.613-0.083l-0.129 0.1-1.856 1.633c-0.211 0.186-0.486 0.271-0.757 0.244l-0.135-0.023-0.154-0.050-0.221-0.096c-1.077-0.36-2.081-0.879-3.020-1.564l-0.399-0.304-0.689-0.577c-0.229-0.192-0.358-0.474-0.357-0.767l0.011-0.147 0.401-2.654c0.087-0.577-0.21-1.136-0.721-1.392l-0.145-0.062-2.555-0.922c-0.237-0.086-0.429-0.256-0.543-0.473l-0.059-0.135-0.039-0.144-0.157-0.848c-0.241-1.485-0.241-2.997-0.006-4.413l0.099-0.526 0.058-0.367c0.051-0.322 0.255-0.595 0.542-0.738l0.128-0.053 2.444-0.816c0.562-0.188 0.926-0.719 0.91-1.299l-0.014-0.159-0.403-2.751c-0.030-0.202 0.004-0.406 0.092-0.585l0.076-0.129 0.096-0.118 0.28-0.291c0.495-0.455 1.065-0.866 1.693-1.232 0.579-0.332 1.137-0.605 1.682-0.821l0.406-0.151 0.291-0.122c0.309-0.13 0.659-0.095 0.934 0.086l0.113 0.086 1.902 1.678c0.459 0.405 1.127 0.441 1.623 0.108l0.131-0.1 1.956-1.692c0.211-0.183 0.484-0.266 0.753-0.238zM19.628 5.597l-1.552 1.344c-1.147 0.993-2.822 1.037-4.016 0.138l-0.194-0.159-1.5-1.325-0.23 0.086c-0.34 0.135-0.693 0.299-1.056 0.492l-0.367 0.203c-0.439 0.257-0.831 0.53-1.124 0.773l-0.144 0.124 0.34 2.328c0.214 1.457-0.594 2.861-1.936 3.418l-0.216 0.081-1.947 0.65-0.075 0.39c-0.176 1.060-0.198 2.19-0.066 3.291l0.066 0.47 0.065 0.354 2.086 0.753c1.364 0.492 2.218 1.835 2.104 3.263l-0.026 0.226-0.328 2.17 0.279 0.235c0.755 0.601 1.554 1.064 2.413 1.4l0.276 0.099 1.456-1.28c1.128-0.992 2.783-1.061 3.984-0.195l0.196 0.153 1.569 1.325 0.251-0.094c0.23-0.092 0.456-0.194 0.669-0.301l0.309-0.165 0.413-0.247c0.411-0.24 0.797-0.511 1.088-0.752l0.155-0.134-0.278-2.334c-0.168-1.411 0.615-2.754 1.902-3.312l0.219-0.086 1.904-0.665 0.067-0.37c0.183-1.117 0.206-2.227 0.074-3.292l-0.066-0.454-0.064-0.343-2.014-0.751c-1.347-0.503-2.184-1.837-2.071-3.252l0.026-0.224 0.346-2.28-0.142-0.118c-0.767-0.62-1.626-1.126-2.642-1.554l-0.201-0.083zM16 10.537c0.342 0 0.681 0.032 1.013 0.094 0.507 0.095 0.84 0.583 0.745 1.089s-0.583 0.84-1.089 0.745c-0.218-0.041-0.442-0.062-0.668-0.062-1.986 0-3.596 1.61-3.596 3.596s1.61 3.596 3.596 3.596c1.986 0 3.596-1.61 3.596-3.596 0-0.761-0.236-1.483-0.668-2.088-0.3-0.419-0.203-1.002 0.216-1.302s1.002-0.203 1.302 0.216c0.657 0.919 1.016 2.021 1.016 3.174 0 3.017-2.446 5.463-5.463 5.463s-5.463-2.446-5.463-5.463c0-3.017 2.446-5.463 5.463-5.463z"></path>
</svg>
