<svg xmlns="http://www.w3.org/2000/svg" width="24" height="24" xmlns:v="https://vecta.io/nano"><path fill="currentColor" d="M17.5 6.102a1.45 1.45 0 0 1 1.45 1.45v9.854a1.45 1.45 0 0 1-1.45 1.45h-5.298a.05.05 0 0 0-.028.008l-4.64 3.064a.45.45 0 0 1-.698-.376v-2.646a.05.05 0 0 0-.05-.05H3.5a1.45 1.45 0 0 1-1.45-1.45V7.552a1.45 1.45 0 0 1 1.45-1.45h14zm0 .9h-14a.55.55 0 0 0-.55.55v9.854a.55.55 0 0 0 .55.55h3.287a.95.95 0 0 1 .95.95v1.81l3.942-2.603a.95.95 0 0 1 .462-.155l.062-.002H17.5a.55.55 0 0 0 .55-.55V7.552a.55.55 0 0 0-.55-.55zm-7.212 8.434a.5.5 0 1 1 0 1 .5.5 0 1 1 0-1zM10.279 8.3a2.73 2.73 0 0 1 2.729 2.729c0 .883-.506 1.696-1.299 2.223l-.073.047c-.66.415-.902.716-.913 1.16v.048a.45.45 0 1 1-.9.009c-.009-.847.413-1.399 1.334-1.979.589-.371.951-.933.951-1.508A1.83 1.83 0 0 0 10.279 9.2a1.83 1.83 0 0 0-1.829 1.829.45.45 0 0 1-.9 0A2.73 2.73 0 0 1 10.279 8.3zM20.5 3.05a1.45 1.45 0 0 1 1.449 1.394l.001.056v7.25a1.45 1.45 0 0 1-1.394 1.449l-.056.001h-.473a.45.45 0 0 1-.037-.899l.037-.001h.473a.55.55 0 0 0 .549-.511l.001-.039V4.5a.55.55 0 0 0-.511-.549L20.5 3.95H8.75a.55.55 0 0 0-.549.511L8.2 4.5v.505a.45.45 0 0 1-.899.037L7.3 5.005V4.5a1.45 1.45 0 0 1 1.394-1.449l.056-.001H20.5z" fill-opacity=".8" fill="#000" fill-rule="nonzero"/></svg>