<svg version="1.1" xmlns="http://www.w3.org/2000/svg" width="24" height="24" viewBox="0 0 24 24">
<path d="M12 2.95c-1.25 0-2.408 0.221-3.474 0.663h-0c-1.067 0.442-2.042 1.104-2.925 1.988s-1.546 1.858-1.988 2.925-0.663 2.225-0.663 3.474c0 1.25 0.221 2.408 0.663 3.474h0c0.442 1.067 1.104 2.042 1.988 2.925s1.859 1.546 2.925 1.988c1.067 0.442 2.225 0.663 3.474 0.663s2.408-0.221 3.474-0.663c1.067-0.442 2.042-1.104 2.925-1.988s1.546-1.859 1.988-2.925c0.442-1.066 0.663-2.225 0.663-3.474 0-1.047-0.162-2.038-0.486-2.972-0.317-0.912-0.787-1.771-1.413-2.575-0.155-0.199-0.12-0.477 0.079-0.632s0.477-0.12 0.631 0.079c0.688 0.886 1.207 1.831 1.555 2.835 0.356 1.027 0.534 2.115 0.534 3.265 0 1.374-0.243 2.647-0.729 3.82s-1.214 2.245-2.186 3.216c-0.971 0.972-2.043 1.7-3.216 2.186s-2.446 0.729-3.82 0.729-2.647-0.243-3.82-0.729c-1.173-0.486-2.245-1.214-3.216-2.186s-1.7-2.043-2.186-3.216c-0.486-1.173-0.729-2.446-0.729-3.82s0.243-2.647 0.729-3.82c0.486-1.173 1.214-2.245 2.186-3.216s2.043-1.7 3.216-2.186c1.173-0.486 2.446-0.729 3.82-0.729 1.136 0 2.212 0.174 3.229 0.522 0.992 0.34 1.928 0.845 2.806 1.516 0.2 0.153 0.237 0.43 0.084 0.631s-0.431 0.237-0.631 0.084c-0.798-0.61-1.648-1.069-2.549-1.378-0.926-0.317-1.906-0.476-2.94-0.476zM18.549 8.415c0.101 0.179 0.151 0.386 0.151 0.622v5.928c0 0.494-0.222 0.863-0.665 1.106l-5.387 2.964c-0.216 0.119-0.432 0.178-0.648 0.178s-0.432-0.059-0.648-0.178l-5.387-2.964c-0.232-0.127-0.403-0.289-0.513-0.485-0.101-0.179-0.151-0.386-0.151-0.622v-5.928c0-0.236 0.050-0.443 0.151-0.622 0.111-0.196 0.282-0.357 0.513-0.485l5.387-2.964c0.216-0.119 0.432-0.178 0.648-0.178s0.432 0.059 0.649 0.178l5.387 2.964c0.232 0.127 0.403 0.289 0.513 0.485zM17.8 9.036c0-0.139-0.067-0.245-0.199-0.318l-5.386-2.964c-0.143-0.079-0.286-0.079-0.429 0l-5.387 2.964c-0.076 0.042-0.131 0.095-0.163 0.159-0.024 0.047-0.035 0.1-0.035 0.158v5.928c0 0.139 0.066 0.245 0.198 0.318l5.387 2.964c0.071 0.039 0.143 0.059 0.214 0.059s0.143-0.020 0.215-0.059l5.387-2.964c0.132-0.073 0.198-0.179 0.198-0.318v-5.928z"></path>
<path id="apppkg-icon"  d="M7.745 9.23c-0.221-0.121-0.49-0.043-0.611 0.177s-0.043 0.49 0.177 0.611l4.040 2.223c0.058 0.032 0.118 0.059 0.18 0.082v4.663c0 0.252 0.198 0.45 0.45 0.45s0.45-0.198 0.45-0.45v-4.65c0.075-0.025 0.147-0.057 0.217-0.095l4.040-2.223c0.221-0.121 0.299-0.39 0.177-0.611s-0.39-0.299-0.611-0.177l-4.040 2.223c-0.027 0.015-0.055 0.026-0.083 0.035-0.042 0.013-0.086 0.019-0.132 0.019-0.077 0-0.149-0.018-0.215-0.054l-4.040-2.223z"></path>
</svg>
