<svg version="1.1" xmlns="http://www.w3.org/2000/svg" width="24" height="24" viewBox="0 0 24 24">
<path d="M12 1.14c-1.499 0-2.889 0.265-4.169 0.795h-0c-1.28 0.53-2.45 1.325-3.51 2.386s-1.855 2.23-2.386 3.51-0.795 2.67-0.795 4.169c0 1.499 0.265 2.889 0.795 4.169h0c0.53 1.28 1.325 2.45 2.386 3.51s2.23 1.855 3.51 2.386c1.28 0.53 2.67 0.795 4.169 0.795s2.889-0.265 4.169-0.795c1.28-0.53 2.45-1.325 3.51-2.386s1.855-2.23 2.386-3.51 0.795-2.67 0.795-4.169c0-1.257-0.195-2.445-0.584-3.567-0.38-1.094-0.945-2.125-1.695-3.090-0.186-0.239-0.144-0.572 0.095-0.758s0.572-0.144 0.758 0.095c0.826 1.063 1.448 2.197 1.866 3.402 0.427 1.232 0.641 2.538 0.641 3.918 0 1.649-0.291 3.176-0.874 4.583s-1.457 2.694-2.623 3.859c-1.166 1.166-2.452 2.040-3.859 2.623s-2.935 0.874-4.584 0.874-3.176-0.291-4.584-0.874c-1.407-0.583-2.694-1.457-3.859-2.623s-2.040-2.452-2.623-3.859c-0.583-1.407-0.874-2.935-0.874-4.584s0.291-3.176 0.874-4.583 1.457-2.694 2.623-3.859c1.166-1.166 2.452-2.040 3.859-2.623s2.935-0.874 4.584-0.874c1.363 0 2.655 0.209 3.875 0.627 1.191 0.408 2.313 1.014 3.367 1.82 0.24 0.183 0.285 0.517 0.101 0.757s-0.517 0.285-0.757 0.101c-0.958-0.731-1.977-1.283-3.058-1.653-1.111-0.381-2.287-0.571-3.528-0.571zM19.858 7.697c0.121 0.214 0.182 0.463 0.182 0.746v7.113c0 0.593-0.266 1.035-0.798 1.328l-6.464 3.557c-0.259 0.143-0.519 0.214-0.778 0.214s-0.519-0.071-0.778-0.214l-6.465-3.557c-0.278-0.153-0.483-0.347-0.616-0.582-0.121-0.214-0.182-0.463-0.182-0.746v-7.113c0-0.283 0.061-0.531 0.182-0.746 0.133-0.235 0.338-0.429 0.616-0.582l6.464-3.556c0.259-0.143 0.519-0.214 0.778-0.214s0.519 0.071 0.778 0.214l6.464 3.556c0.278 0.153 0.483 0.347 0.616 0.582zM18.96 8.443c0-0.167-0.080-0.294-0.239-0.382l-6.464-3.556c-0.172-0.094-0.343-0.094-0.515 0l-6.464 3.557c-0.092 0.050-0.157 0.114-0.196 0.191-0.028 0.057-0.042 0.12-0.042 0.19v7.113c0 0.167 0.079 0.294 0.238 0.381l6.464 3.557c0.086 0.047 0.171 0.071 0.257 0.071s0.172-0.024 0.258-0.071l6.464-3.557c0.159-0.087 0.238-0.214 0.238-0.381v-7.113z"></path>
<path id="apppkg-icon" d="M6.894 8.676c-0.265-0.146-0.588-0.052-0.733 0.213s-0.052 0.588 0.213 0.733l4.848 2.667c0.070 0.038 0.142 0.071 0.216 0.099v5.596c0 0.302 0.238 0.54 0.54 0.54s0.54-0.238 0.54-0.54v-5.58c0.090-0.030 0.177-0.068 0.26-0.114l4.848-2.667c0.265-0.146 0.359-0.468 0.213-0.733s-0.469-0.359-0.733-0.213l-4.848 2.667c-0.032 0.018-0.065 0.032-0.1 0.042-0.050 0.015-0.103 0.023-0.158 0.023-0.093 0-0.178-0.022-0.257-0.065l-4.848-2.667z"></path>
</svg>
