<svg version="1.1" xmlns="http://www.w3.org/2000/svg" width="24" height="24" viewBox="0 0 24 24">
<path id="conda-icon" d="M11.61 8.31c-0.398 0.056-0.768 0.151-1.107 0.286 0.019 0.007 0.037 0.015 0.056 0.022 0.271 0.11 0.521 0.233 0.753 0.369 0.067-0.183 0.145-0.363 0.231-0.542 0.023-0.047 0.045-0.092 0.067-0.135zM9.669 9.037c0 0.001 0 0.001-0.001 0.001-0.151 0.101-0.324 0.233-0.521 0.394-0.11 0.089-0.217 0.188-0.321 0.293 0.224 0.004 0.453 0.028 0.686 0.073 0.041 0.007 0.082 0.016 0.122 0.025-0.003-0.076-0.006-0.152-0.006-0.226 0-0.182 0.013-0.356 0.038-0.526 0.001-0.012 0.003-0.023 0.004-0.035zM8.247 10.449c-0.078 0.117-0.149 0.239-0.215 0.363-0.094 0.177-0.177 0.359-0.249 0.543-0.026 0.072-0.053 0.142-0.076 0.215 0.224-0.11 0.461-0.198 0.713-0.264 0.038-0.010 0.078-0.019 0.116-0.028-0.040-0.079-0.076-0.158-0.108-0.24v0c-0.007-0.018-0.015-0.035-0.022-0.053-0.069-0.179-0.122-0.357-0.158-0.538zM7.513 12.379c-0.037 0.245-0.056 0.494-0.056 0.746 0 0.196 0.007 0.387 0.022 0.57 0.145-0.186 0.305-0.354 0.48-0.505 0.063-0.056 0.129-0.108 0.196-0.157-0.164-0.148-0.324-0.306-0.482-0.475-0.056-0.060-0.11-0.12-0.161-0.179zM7.591 14.446c0.064 0.293 0.155 0.568 0.27 0.828 0.126 0.286 0.286 0.558 0.48 0.817 0.161 0.217 0.354 0.435 0.582 0.656 0.337 0.33 0.706 0.601 1.104 0.816 0.148 0.079 0.3 0.151 0.456 0.215 0.621 0.253 1.299 0.381 2.036 0.381 0.678 0 1.414-0.192 2.208-0.576 0.167-0.081 0.333-0.167 0.494-0.261 0.064-0.037 0.127-0.075 0.192-0.114 0.111-0.067 0.204-0.128 0.275-0.179l0.448-0.33c0.088-0.066 0.108-0.191 0.044-0.281l-0.939-1.323c-0.066-0.092-0.194-0.113-0.286-0.045l-0.434 0.319c-0.037 0.026-0.094 0.064-0.171 0.111-0.034 0.021-0.069 0.041-0.103 0.061-0.132 0.078-0.267 0.149-0.403 0.215-0.237 0.114-0.463 0.204-0.678 0.267-0.242 0.070-0.457 0.107-0.647 0.107-0.472 0-0.894-0.078-1.269-0.23-0.038-0.016-0.075-0.032-0.113-0.050-0.29-0.133-0.557-0.319-0.8-0.557-0.151-0.147-0.275-0.286-0.372-0.416-0.103-0.138-0.186-0.28-0.25-0.426-0.064-0.142-0.114-0.302-0.151-0.479-0.319-0.127-0.655-0.33-1.008-0.605-0.091 0.060-0.179 0.129-0.265 0.204-0.196 0.17-0.372 0.366-0.526 0.589-0.066 0.097-0.125 0.19-0.174 0.284zM9.491 13.383c-0.004-0.084-0.006-0.17-0.006-0.258 0-0.044 0.001-0.086 0.003-0.129-0.086 0.013-0.171 0.032-0.256 0.056-0.059 0.018-0.119 0.037-0.177 0.059 0.151 0.107 0.296 0.198 0.437 0.272zM9.708 12.001c0.034-0.079 0.072-0.157 0.113-0.233 0.012-0.025 0.025-0.048 0.038-0.072-0.154-0.016-0.306-0.022-0.459-0.019 0.094 0.111 0.196 0.22 0.308 0.324zM10.396 11.030c0.012-0.010 0.023-0.021 0.034-0.029 0.101-0.082 0.19-0.152 0.268-0.208-0.145-0.088-0.293-0.166-0.444-0.233 0.038 0.157 0.086 0.313 0.142 0.47zM11.505 10.396c0.152-0.041 0.316-0.072 0.494-0.092-0.092-0.171-0.229-0.338-0.409-0.498-0.047 0.208-0.076 0.404-0.085 0.59zM12.737 10.285c0.176 0.015 0.352 0.047 0.529 0.097 0.007-0.004 0.013-0.009 0.021-0.013 0 0 0-0.001 0-0.003-0.054-0.185-0.141-0.397-0.259-0.637-0.11 0.173-0.207 0.357-0.29 0.557zM13.872 10.62c0.013 0.006 0.025 0.013 0.038 0.019 0.149 0.078 0.289 0.163 0.416 0.253 0.057 0.041 0.095 0.069 0.114 0.086l0.362 0.28c0.105 0.082 0.258 0.067 0.346-0.034l1.002-1.144c0.095-0.11 0.079-0.278-0.037-0.368l-0.337-0.259c-0.070-0.060-0.166-0.136-0.274-0.212-0.205-0.146-0.426-0.281-0.659-0.403-0.045-0.022-0.089-0.045-0.135-0.067 0.094 0.256 0.204 0.583 0.327 0.979l0.012 0.037v0.038c0 0.044-0.006 0.084-0.019 0.12-0.015 0.041-0.035 0.076-0.063 0.105v0c-0.025 0.026-0.054 0.048-0.089 0.064-0.366 0.173-0.7 0.341-1.003 0.505zM13.633 8.383c-0.294-0.070-0.589-0.114-0.883-0.129 0.032 0.048 0.064 0.097 0.097 0.146 0.094 0.144 0.18 0.283 0.262 0.419 0.038-0.040 0.079-0.078 0.12-0.116 0.13-0.12 0.265-0.227 0.404-0.321zM12.422 8.678c0.123 0.189 0.236 0.372 0.337 0.548-0.155 0.208-0.292 0.435-0.409 0.68-0.146-0.221-0.349-0.431-0.605-0.628 0.072-0.207 0.157-0.41 0.255-0.611 0.062-0.127 0.122-0.242 0.183-0.344 0.079 0.114 0.16 0.233 0.239 0.356zM13.383 9.309c-0.004-0.009-0.009-0.019-0.015-0.028 0.023-0.025 0.047-0.050 0.070-0.075 0.001-0.001 0.003-0.001 0.003-0.003 0.042-0.044 0.086-0.086 0.13-0.127 0.158-0.145 0.324-0.267 0.494-0.365 0.022-0.012 0.042-0.023 0.063-0.035 0.054 0.135 0.12 0.312 0.196 0.533 0.059 0.168 0.116 0.343 0.174 0.524-0.271 0.13-0.526 0.258-0.762 0.384-0.078-0.239-0.196-0.508-0.354-0.809zM11.149 9.482c-0.086 0.316-0.138 0.617-0.151 0.899-0.271-0.167-0.552-0.303-0.845-0.407-0.003-0.034-0.006-0.066-0.009-0.1-0.006-0.094-0.010-0.188-0.010-0.277 0-0.157 0.010-0.308 0.032-0.451 0.006-0.044 0.013-0.086 0.022-0.127 0.059 0.022 0.12 0.044 0.182 0.069 0.27 0.11 0.517 0.233 0.741 0.369 0.013 0.009 0.026 0.016 0.038 0.025zM9.694 10.361c0.048 0.278 0.123 0.555 0.221 0.832-0.217-0.023-0.432-0.029-0.647-0.018v0c-0.069 0.003-0.138 0.009-0.207 0.015-0.035-0.062-0.067-0.125-0.097-0.188l-0.001-0.001c-0.031-0.064-0.059-0.132-0.085-0.199-0.075-0.189-0.126-0.379-0.157-0.57 0.226-0.003 0.456 0.018 0.693 0.064 0.095 0.018 0.188 0.040 0.28 0.064zM8.988 11.974c0.149 0.18 0.316 0.35 0.501 0.51-0.085 0.012-0.17 0.026-0.252 0.045h-0.001c-0.13 0.031-0.258 0.069-0.384 0.119-0.084 0.032-0.166 0.067-0.245 0.107-0.192-0.166-0.379-0.347-0.563-0.543-0.054-0.057-0.104-0.113-0.152-0.167 0.204-0.103 0.423-0.185 0.656-0.246 0.088-0.023 0.174-0.042 0.261-0.059 0.057 0.079 0.116 0.157 0.179 0.234z"></path>
<path d="M22.343 20.061c0.072-0.171 0.107-0.356 0.107-0.557v-12.081c0-0.201-0.035-0.387-0.107-0.557-0.070-0.171-0.177-0.327-0.318-0.469-0.142-0.142-0.297-0.248-0.469-0.319-0.171-0.070-0.356-0.105-0.557-0.105h-0.072v-0.664c0-0.105-0.010-0.209-0.032-0.309-0.019-0.088-0.047-0.173-0.082-0.256-0.035-0.082-0.076-0.161-0.126-0.234-0.053-0.081-0.114-0.157-0.185-0.226-0.069-0.070-0.145-0.132-0.225-0.185v0c-0.073-0.048-0.152-0.091-0.234-0.126-0.084-0.035-0.168-0.063-0.256-0.082-0.1-0.022-0.204-0.032-0.309-0.032h-7.25c-0.013 0-0.026 0-0.040 0.001l-0.398-0.391c-0.141-0.139-0.296-0.243-0.466-0.312v0c-0.168-0.069-0.353-0.104-0.551-0.104h-7.774q-0.3 0-0.557 0.105-0.256 0.107-0.469 0.319t-0.319 0.469q-0.105 0.256-0.105 0.557v15c0 0.201 0.035 0.385 0.105 0.557 0.072 0.171 0.177 0.327 0.319 0.469 0.142 0.141 0.297 0.248 0.469 0.318 0.171 0.072 0.356 0.107 0.557 0.107h18c0.201 0 0.385-0.035 0.557-0.107 0.171-0.070 0.327-0.177 0.469-0.318 0.141-0.142 0.247-0.297 0.318-0.469zM21.549 7.418v12.081c0 0.183-0.047 0.321-0.138 0.413-0.092 0.091-0.23 0.138-0.413 0.138h-18q-0.274 0-0.412-0.138v0c-0.092-0.092-0.138-0.23-0.138-0.413v-15q0-0.275 0.138-0.412v0q0.136-0.138 0.412-0.138h7.775c0.075 0 0.144 0.013 0.208 0.040s0.123 0.066 0.177 0.117l2.386 2.347c0.141 0.138 0.296 0.242 0.466 0.312 0.17 0.069 0.353 0.104 0.551 0.104h6.436c0.183 0 0.321 0.045 0.413 0.138 0.091 0.091 0.138 0.229 0.138 0.412zM13.103 4.759h6.376c0.044 0 0.088 0.006 0.13 0.016 0.028 0.006 0.056 0.016 0.084 0.028s0.056 0.026 0.082 0.044v0c0.034 0.021 0.064 0.045 0.092 0.073 0.028 0.029 0.053 0.059 0.075 0.092 0.016 0.026 0.031 0.054 0.044 0.083 0.012 0.026 0.021 0.054 0.028 0.083 0.010 0.042 0.015 0.085 0.015 0.13v0.664h-5.465c-0.075 0-0.145-0.013-0.209-0.040v0c-0.063-0.026-0.123-0.066-0.176-0.119l-1.075-1.056z"></path>
</svg>
