
<svg version="1.1" xmlns="http://www.w3.org/2000/svg" width="24" height="24" viewBox="0 0 24 24">
<path opacity="0.8" d="M19.73 3.759c1.105 0 2 0.895 2 2v5.49c0 0.387-0.313 0.7-0.7 0.7s-0.7-0.313-0.7-0.7l-0.001-5.248-7.096 5.871c-0.749 0.619-1.834 0.611-2.573-0.019l-7.099-6.056v12.503c0 0.331 0.269 0.6 0.6 0.6h15.569c0.331 0 0.6-0.269 0.6-0.6v-4.046c0-0.387 0.313-0.7 0.7-0.7s0.7 0.313 0.7 0.7v4.046c0 1.105-0.895 2-2 2h-15.569c-1.105 0-2-0.895-2-2v-12.541c0-1.105 0.895-2 2-2h15.569zM19.15 5.159h-14.18l6.599 5.629c0.222 0.189 0.547 0.192 0.772 0.006l6.809-5.635z"></path>
</svg>
