<svg version="1.1" xmlns="http://www.w3.org/2000/svg" width="24" height="24" viewBox="0 0 24 24">
<path id="epkg-icon" d="M18.895 17.259v0.889h0.984v0.844c-0.028 0.028-0.056 0.052-0.086 0.074-0.199 0.156-0.46 0.234-0.782 0.234-0.298 0-0.562-0.062-0.791-0.187-0.016-0.008-0.031-0.017-0.044-0.027-0.077-0.045-0.148-0.097-0.213-0.154-0.14-0.124-0.255-0.277-0.344-0.456-0.128-0.267-0.193-0.58-0.193-0.939 0-0.352 0.063-0.66 0.19-0.924 0.111-0.231 0.258-0.415 0.441-0.551 0.028-0.022 0.056-0.042 0.086-0.062 0.075-0.047 0.153-0.087 0.234-0.119 0.16-0.063 0.333-0.095 0.519-0.095 0.241 0 0.452 0.052 0.634 0.157 0.020 0.010 0.039 0.021 0.056 0.033 0.067 0.043 0.128 0.092 0.184 0.145 0.109 0.105 0.197 0.228 0.264 0.37l0.853-0.492c-0.022-0.061-0.048-0.12-0.080-0.178-0.134-0.257-0.346-0.473-0.634-0.649-0.016-0.010-0.032-0.020-0.047-0.030-0.344-0.198-0.744-0.296-1.2-0.296-0.344 0-0.666 0.057-0.966 0.172-0.119 0.045-0.233 0.1-0.344 0.163-0.158 0.091-0.302 0.196-0.433 0.314-0.196 0.178-0.36 0.389-0.495 0.634-0.225 0.407-0.338 0.876-0.338 1.407 0 0.525 0.109 0.993 0.326 1.401 0.122 0.225 0.271 0.424 0.444 0.596 0.14 0.136 0.298 0.255 0.474 0.356 0.041 0.026 0.084 0.048 0.127 0.068 0.361 0.182 0.769 0.273 1.224 0.273 0.427 0 0.817-0.077 1.17-0.231 0.352-0.154 0.608-0.36 0.77-0.619v-2.121h-1.991zM3.947 17.95h2.113v-0.889h-2.113v-1.224h2.361v-0.895h-3.393v5.206h3.47v-0.904h-2.439v-1.295zM10.113 15.156c-0.308-0.142-0.668-0.213-1.079-0.213h-1.796v5.206h1.031v-1.778h0.764c0.411 0 0.77-0.070 1.079-0.21 0.243-0.113 0.442-0.261 0.599-0.444 0.041-0.049 0.080-0.101 0.116-0.154 0.034-0.051 0.063-0.104 0.089-0.157v0c0.109-0.221 0.163-0.468 0.163-0.741 0-0.29-0.059-0.55-0.178-0.779-0.022-0.043-0.046-0.086-0.074-0.127-0.036-0.055-0.074-0.108-0.116-0.157v0c-0.156-0.186-0.356-0.334-0.599-0.444zM14.252 17.067l2.21 3.081h-1.327l-1.624-2.29-0.711 0.759v1.532h-1.031v-5.206h1.031v2.424l2.163-2.424h1.286l-1.997 2.124zM9.692 17.286c-0.194 0.138-0.451 0.207-0.773 0.207h-0.649v-1.677h0.649c0.322 0 0.58 0.072 0.773 0.216 0.067 0.049 0.122 0.107 0.166 0.172v0c0.085 0.124 0.127 0.278 0.127 0.459s-0.043 0.335-0.13 0.459c-0.043 0.061-0.098 0.116-0.163 0.163z"></path>
<path  d="M18.607 3.911v-2.392c0-0.216-0.052-0.42-0.157-0.615-0.095-0.176-0.227-0.33-0.395-0.461-0.158-0.124-0.337-0.218-0.538-0.284s-0.411-0.1-0.629-0.1h-10.37c-0.17 0-0.335 0.020-0.495 0.061h-0c-0.045 0.011-0.089 0.024-0.133 0.039-0.186 0.061-0.354 0.148-0.503 0.258-0.012 0.008-0.023 0.017-0.034 0.026-0.145 0.113-0.263 0.243-0.354 0.39-0.014 0.023-0.028 0.047-0.041 0.071-0.062 0.115-0.106 0.233-0.131 0.356-0.018 0.084-0.026 0.171-0.026 0.259v2.392h-3.038c-0.222 0-0.429 0.039-0.62 0.116-0.219 0.088-0.418 0.227-0.596 0.416-0.15 0.16-0.265 0.334-0.346 0.523-0.094 0.22-0.141 0.461-0.141 0.722v16.476c0 0.261 0.047 0.501 0.141 0.722 0.081 0.189 0.196 0.363 0.346 0.523 0.334 0.355 0.739 0.532 1.216 0.532h20.179c0.477 0 0.882-0.177 1.216-0.532 0.15-0.159 0.265-0.334 0.346-0.523 0.094-0.221 0.141-0.461 0.141-0.722v-6.855c0-0.299-0.235-0.534-0.533-0.534s-0.533 0.235-0.533 0.534v6.855c0 0.12-0.023 0.229-0.070 0.327h-0c-0.032 0.067-0.075 0.13-0.128 0.187-0.123 0.131-0.269 0.196-0.439 0.196h-20.179c-0.169 0-0.316-0.065-0.439-0.196-0.054-0.057-0.096-0.119-0.128-0.187l-0-0c-0.046-0.098-0.069-0.207-0.069-0.327v-13.186h7.549c0.012 0.103 0.030 0.206 0.052 0.307 0.042 0.188 0.101 0.373 0.177 0.554 0.077 0.182 0.169 0.353 0.275 0.515 0.118 0.179 0.255 0.347 0.41 0.502s0.322 0.292 0.502 0.41c0.162 0.107 0.334 0.198 0.515 0.275s0.365 0.135 0.553 0.177c0.225 0.050 0.456 0.075 0.692 0.075 0.434 0 0.849-0.084 1.246-0.252 0.182-0.077 0.353-0.169 0.515-0.275 0.179-0.118 0.347-0.255 0.502-0.41 0.295-0.295 0.524-0.634 0.686-1.017 0.076-0.181 0.135-0.365 0.177-0.554 0.022-0.101 0.040-0.203 0.052-0.307h7.549v3.942c0 0.299 0.235 0.533 0.533 0.533s0.533-0.235 0.533-0.533v-7.232c0-0.261-0.047-0.501-0.141-0.722l-0-0c-0.081-0.189-0.196-0.363-0.346-0.523-0.334-0.355-0.739-0.532-1.216-0.532h-3.334zM9.753 8.978h4.198c-0.006 0.032-0.012 0.063-0.020 0.095-0.027 0.119-0.065 0.236-0.114 0.35-0.050 0.118-0.109 0.229-0.178 0.335-0.080 0.123-0.173 0.238-0.28 0.344-0.197 0.197-0.423 0.35-0.678 0.457-0.114 0.048-0.231 0.086-0.35 0.113-0.156 0.036-0.316 0.054-0.48 0.054s-0.324-0.018-0.48-0.054c-0.119-0.027-0.236-0.065-0.35-0.113-0.118-0.050-0.229-0.109-0.335-0.178h-0c-0.123-0.080-0.237-0.173-0.344-0.28s-0.199-0.221-0.28-0.344c-0.069-0.105-0.128-0.217-0.178-0.335-0.048-0.114-0.086-0.231-0.114-0.35-0.007-0.032-0.014-0.063-0.020-0.095zM5.867 3.911v-2.392c0-0.036 0.010-0.071 0.029-0.107 0.025-0.045 0.062-0.088 0.113-0.128 0.061-0.047 0.133-0.085 0.216-0.112 0.092-0.031 0.19-0.046 0.294-0.046h10.37c0.104 0 0.202 0.015 0.294 0.046 0.083 0.027 0.155 0.065 0.216 0.112 0.051 0.040 0.089 0.082 0.113 0.128 0.019 0.036 0.029 0.071 0.029 0.107v2.392h-11.674zM22.578 5.688v2.223h-21.452v-2.223c0-0.12 0.023-0.229 0.070-0.327v0h0c0.032-0.067 0.075-0.13 0.128-0.187 0.073-0.078 0.154-0.132 0.244-0.164 0.061-0.022 0.126-0.032 0.195-0.032h20.179c0.169 0 0.316 0.065 0.439 0.196 0.054 0.057 0.096 0.119 0.128 0.187 0.046 0.098 0.070 0.207 0.070 0.327z"></path>
</svg>
