<svg width="24" height="24" viewBox="0 0 24 24" xmlns="http://www.w3.org/2000/svg"><path d="M10.027 2.55h-6.054c-0.786 0-1.423 0.637-1.423 1.423v6.054c0 0.786 0.637 1.423 1.423 1.423h6.054c0.786 0 1.423-0.637 1.423-1.423v-6.054c0-0.786-0.637-1.423-1.423-1.423zM10.027 3.45c0.289 0 0.523 0.234 0.523 0.523v6.054c0 0.289-0.234 0.523-0.523 0.523v0h-6.054c-0.289 0-0.523-0.234-0.523-0.523v0-6.054c0-0.289 0.234-0.523 0.523-0.523h6.054zM20.027 12.55h-6.054c-0.786 0-1.423 0.637-1.423 1.423v6.054c0 0.786 0.637 1.423 1.423 1.423h6.054c0.786 0 1.423-0.637 1.423-1.423v-6.054c0-0.786-0.637-1.423-1.423-1.423zM20.027 13.45c0.289 0 0.523 0.234 0.523 0.523v6.054c0 0.289-0.234 0.523-0.523 0.523v0h-6.054c-0.289 0-0.523-0.234-0.523-0.523v0-6.054c0-0.289 0.234-0.523 0.523-0.523h6.054zM10.027 12.55h-6.054c-0.786 0-1.423 0.637-1.423 1.423v6.054c0 0.786 0.637 1.423 1.423 1.423h6.054c0.786 0 1.423-0.637 1.423-1.423v-6.054c0-0.786-0.637-1.423-1.423-1.423zM10.027 13.45c0.289 0 0.523 0.234 0.523 0.523v6.054c0 0.289-0.234 0.523-0.523 0.523v0h-6.054c-0.289 0-0.523-0.234-0.523-0.523v0-6.054c0-0.289 0.234-0.523 0.523-0.523h6.054zM16.328 3.035l-3.293 3.293c-0.172 0.172-0.279 0.41-0.279 0.672s0.106 0.5 0.278 0.672l3.293 3.293c0.172 0.172 0.41 0.279 0.672 0.279s0.5-0.106 0.672-0.278l3.293-3.293c0.172-0.172 0.279-0.41 0.279-0.672s-0.106-0.5-0.278-0.672l-3.293-3.293c-0.172-0.172-0.41-0.279-0.672-0.279s-0.5 0.106-0.672 0.278v0zM17.035 3.672l3.293 3.293c0.009 0.009 0.014 0.021 0.014 0.035s-0.005 0.026-0.014 0.035v0l-3.293 3.293c-0.009 0.009-0.021 0.014-0.035 0.014s-0.026-0.005-0.035-0.014v0l-3.293-3.293c-0.009-0.009-0.014-0.021-0.014-0.035s0.005-0.026 0.014-0.035v0l3.293-3.293c0.009-0.009 0.021-0.014 0.035-0.014s0.026 0.005 0.035 0.014v0z"></path></svg>