<!-- Generated by IcoMoon.io -->
<svg version="1.1" xmlns="http://www.w3.org/2000/svg" width="24" height="24" viewBox="0 0 24 24">
<path d="M4.833 5.582c0.249 0 0.45 0.201 0.45 0.45s-0.201 0.45-0.45 0.45h-0.949c-0.279 0-0.505 0.226-0.505 0.505v9.548c0 0.279 0.226 0.505 0.505 0.505h1.438l0.037 0.002c0.231 0.019 0.413 0.212 0.413 0.448l0 2.759 3.19-3.083c0.084-0.081 0.196-0.126 0.313-0.126h6.541c0.249 0 0.45 0.201 0.45 0.45l-0.001 0.037c-0.019 0.231-0.212 0.413-0.448 0.413l-6.359-0-3.418 3.303c-0.128 0.124-0.3 0.193-0.479 0.193l-0.042-0.001c-0.361-0.022-0.647-0.321-0.647-0.687l0-2.808-0.988 0c-0.776 0-1.405-0.629-1.405-1.405v-9.548c0-0.776 0.629-1.405 1.405-1.405zM20.116 2.479c0.776 0 1.405 0.629 1.405 1.405v9.548c0 0.776-0.629 1.405-1.405 1.405l-0.988-0 0 2.808c0 0.366-0.286 0.666-0.647 0.687l-0.042 0.001c-0.179 0-0.35-0.069-0.479-0.193l-3.418-3.303-6.84 0c-0.757 0-1.375-0.599-1.404-1.35l-0.001-0.055v-9.548c0-0.776 0.629-1.405 1.405-1.405zM20.116 3.379h-12.413c-0.279 0-0.505 0.226-0.505 0.505v9.548c0 0.279 0.226 0.505 0.505 0.505h7.022c0.117 0 0.229 0.045 0.313 0.126l3.19 3.083 0-2.759c0-0.236 0.182-0.43 0.413-0.448l0.037-0.001h1.438c0.279 0 0.505-0.226 0.505-0.505v-9.548c0-0.279-0.226-0.505-0.505-0.505zM15.5 9.175c0.249 0 0.45 0.201 0.45 0.45s-0.201 0.45-0.45 0.45h-6c-0.249 0-0.45-0.201-0.45-0.45s0.201-0.45 0.45-0.45h6zM18.5 6.175c0.249 0 0.45 0.201 0.45 0.45s-0.201 0.45-0.45 0.45h-9c-0.249 0-0.45-0.201-0.45-0.45s0.201-0.45 0.45-0.45h9z"></path>
</svg>
