<svg version="1.1" xmlns="http://www.w3.org/2000/svg" width="24" height="24" viewBox="0 0 24 24">
<path d="M1.8 10v0.268c0 0.252 0.197 0.45 0.45 0.45 0.25 0 0.45-0.198 0.45-0.45v-5.268c0-0.185 0.045-0.322 0.137-0.412 0.090-0.093 0.228-0.14 0.413-0.14h17.5c0.365 0 0.55 0.184 0.55 0.552v5.268c0 0.252 0.197 0.45 0.45 0.45 0.25 0 0.45-0.198 0.45-0.45v-5.268c0-0.202-0.038-0.388-0.108-0.558-0.078-0.183-0.185-0.339-0.317-0.47l-0-0c-0.131-0.132-0.287-0.239-0.461-0.313l-0.009-0.004c-0.16-0.066-0.346-0.105-0.541-0.105-0.005 0-0.010 0-0.015 0h-17.499c-0.203 0-0.388 0.035-0.558 0.105-0.172 0.070-0.327 0.178-0.47 0.318-0.14 0.142-0.247 0.297-0.317 0.47-0.070 0.17-0.105 0.355-0.105 0.557v5zM22.165 13.71c0-0.25-0.2-0.448-0.453-0.448-0.247 0.001-0.447 0.201-0.447 0.448 0 0.002 0 0.004 0 0.005v-0l0.027 5.28c0 0.004 0 0.008 0 0.012 0 0.149-0.061 0.283-0.16 0.38l-0 0c-0.097 0.101-0.233 0.163-0.383 0.163-0.002 0-0.005-0-0.007-0h-17.492c-0.002 0-0.004 0-0.007 0-0.15 0-0.286-0.062-0.383-0.163l-0-0c-0.099-0.096-0.16-0.231-0.16-0.379 0-0.003 0-0.006 0-0.008v0-5.287c0-0.253-0.2-0.45-0.45-0.45-0.001-0-0.003-0-0.005-0-0.246 0-0.445 0.199-0.445 0.445 0 0.002 0 0.004 0 0.005v-0 5.287c0 0.2 0.035 0.385 0.105 0.555 0.070 0.172 0.177 0.328 0.317 0.47 0.143 0.14 0.298 0.248 0.47 0.318 0.17 0.070 0.355 0.105 0.558 0.105h17.492c0.007 0 0.016 0 0.025 0 0.394 0 0.75-0.163 1.005-0.425l0-0c0.283-0.285 0.423-0.63 0.42-1.033l-0.027-5.28z"></path>
<path d="M4.655 11.555h-3.26c-0.002-0-0.003-0-0.005-0-0.246 0-0.445 0.199-0.445 0.445 0 0.002 0 0.004 0 0.005v-0c0 0.252 0.197 0.45 0.45 0.45h3.527c0.088 0 0.165-0.020 0.23-0.057 0.069-0.043 0.124-0.103 0.162-0.173l0.001-0.002 2.192-3.963 2.585 8.030c0.093 0.288 0.283 0.383 0.568 0.293 0.125-0.040 0.224-0.13 0.274-0.247l0.001-0.003 2.36-5.45 2.552 3.96c0.163 0.25 0.37 0.294 0.623 0.132 0.067-0.044 0.12-0.103 0.156-0.172l0.001-0.003 1.585-3.168 0.7 0.698c0.090 0.090 0.195 0.133 0.32 0.133l3.423-0.008c0.252 0 0.45-0.2 0.45-0.45 0-0.253-0.2-0.45-0.45-0.45l-3.238 0.008-1.007-1.010c-0.034-0.033-0.073-0.060-0.115-0.082l-0.003-0.001c-0.267-0.135-0.47-0.068-0.605 0.2l-1.512 3.020-2.58-4.002c-0.047-0.075-0.115-0.134-0.195-0.169l-0.003-0.001c-0.275-0.118-0.472-0.040-0.592 0.234l-2.223 5.125-2.537-7.885c-0.036-0.11-0.111-0.2-0.208-0.254l-0.002-0.001c-0.13-0.072-0.248-0.095-0.35-0.064-0.1 0.030-0.188 0.11-0.26 0.24l-2.57 4.642z"></path>
</svg>
