<?xml version="1.0" encoding="UTF-8"?>
<svg width="16px" height="16px" viewBox="0 0 24 24" version="1.1" xmlns="http://www.w3.org/2000/svg" xmlns:xlink="http://www.w3.org/1999/xlink">
    <g id="" stroke="none" stroke-width="1" fill="none" fill-rule="evenodd">
        <g id="编组">
            <rect id="矩形" x="0" y="0" width="24" height="24"></rect>
            <path d="M12.3387462,4.3 C12.7253455,4.3 13.0387462,4.61340068 13.0387462,5 C13.0387462,5.38659932 12.7253455,5.7 12.3387462,5.7 L5.2,5.7 C4.92385763,5.7 4.7,5.92385763 4.7,6.2 L4.7,18.8 C4.7,19.0761424 4.92385763,19.3 5.2,19.3 L17.8,19.3 C18.0761424,19.3 18.3,19.0761424 18.3,18.8 L18.3,11.6798334 C18.3,11.293234 18.6134007,10.9798334 19,10.9798334 C19.3865993,10.9798334 19.7,11.293234 19.7,11.6798334 L19.7,18.8 C19.7,19.849341 18.849341,20.7 17.8,20.7 L5.2,20.7 C4.15065898,20.7 3.3,19.849341 3.3,18.8 L3.3,6.2 C3.3,5.15065898 4.15065898,4.3 5.2,4.3 L12.3387462,4.3 Z M19.0475063,3.12558164 C20.0416188,3.12558164 20.8475063,3.93146909 20.8475063,4.92558164 L20.8475063,8.02096847 C20.8475063,8.35233932 20.5788771,8.62096847 20.2475063,8.62096847 C19.9161354,8.62096847 19.6475063,8.35233932 19.6475063,8.02096847 L19.647,5.36758164 L13.2168476,11.7258632 C12.9419166,11.9976572 12.4987084,11.9951143 12.2269144,11.7201833 C11.9551203,11.4452524 11.9576633,11.0020442 12.2325943,10.7302501 L18.71,4.32558164 L16.0016756,4.32558164 C15.6703048,4.32558164 15.4016756,4.05695249 15.4016756,3.72558164 C15.4016756,3.39421079 15.6703048,3.12558164 16.0016756,3.12558164 L19.0475063,3.12558164 Z" id="形状结合" fill="#303030" fill-rule="nonzero"></path>
        </g>
    </g>
</svg>