
<svg version="1.1" xmlns="http://www.w3.org/2000/svg" width="24" height="24" viewBox="0 0 24 24">
<path opacity="0.797776" fill="#000" d="M17.378 13.625l-0.044 0.001c-0.512 0.026-0.921 0.496-1.299 1.386l-0.040 0.095-0.041-0.030c-0.257-0.184-0.556-0.279-0.89-0.279-0.648 0-0.889 0.78-0.822 1.772 0.063 0.932 0.399 1.867 0.958 2.464 0.594 0.634 1.38 0.972 2.197 0.965 0.805-0.007 1.58-0.348 2.159-0.965 0.544-0.578 0.876-1.507 0.948-2.447 0.077-1.005-0.137-1.79-0.773-1.79l-0.068 0.001c-0.313 0.014-0.6 0.122-0.856 0.318l-0.012 0.010-0.015-0.035c-0.414-0.969-0.854-1.468-1.403-1.468zM17.378 14.375c0.194 0 0.551 0.506 0.93 1.57 0.102 0.287 0.485 0.339 0.66 0.090l0.042-0.057c0.196-0.259 0.4-0.393 0.624-0.422l0.027-0.003 0.007 0.013c0.013 0.029 0.027 0.067 0.040 0.114 0.056 0.207 0.076 0.512 0.050 0.852-0.060 0.783-0.335 1.553-0.747 1.99-0.44 0.468-1.020 0.724-1.62 0.729-0.607 0.005-1.193-0.247-1.643-0.728-0.427-0.456-0.705-1.23-0.757-2.002-0.023-0.335 0.002-0.634 0.064-0.834l0.012-0.037c0.013-0.035 0.025-0.064 0.037-0.085l0.009-0.014 0.052 0.004c0.261 0.029 0.469 0.175 0.648 0.463 0.167 0.269 0.572 0.222 0.674-0.078 0.36-1.060 0.705-1.564 0.891-1.564z"></path>
<path opacity="0.797776" fill="#000" d="M17.375 19.25c0.207 0 0.375 0.168 0.375 0.375v1.875c0 0.207-0.168 0.375-0.375 0.375s-0.375-0.168-0.375-0.375v-1.875c0-0.207 0.168-0.375 0.375-0.375z"></path>
<path opacity="0.797776" fill="#000" d="M13.765 19.256c1.387 0.057 2.393 0.581 2.967 1.573 0.104 0.179 0.043 0.409-0.136 0.512s-0.409 0.043-0.512-0.136c-0.436-0.753-1.203-1.152-2.349-1.199-0.207-0.008-0.368-0.183-0.359-0.39s0.183-0.368 0.39-0.359z"></path>
<path opacity="0.797776" fill="#000" d="M20.985 19.256c-1.387 0.057-2.393 0.581-2.967 1.573-0.104 0.179-0.043 0.409 0.136 0.512s0.409 0.043 0.512-0.136c0.436-0.753 1.203-1.152 2.349-1.199 0.207-0.008 0.368-0.183 0.359-0.39s-0.183-0.368-0.39-0.359z"></path>
<path opacity="0.797776" fill="#000" d="M7.33 3.55c0.249 0 0.45 0.201 0.45 0.45s-0.201 0.45-0.45 0.45h-2.984c-0.22 0-0.396 0.173-0.396 0.383v15.746c0 0.257 0.221 0.471 0.501 0.471h7.049c0.249 0 0.45 0.201 0.45 0.45s-0.201 0.45-0.45 0.45h-7.049c-0.771 0-1.401-0.611-1.401-1.371v-15.746c0-0.71 0.581-1.283 1.296-1.283h2.984zM18.557 3.55c0.767 0 1.393 0.61 1.393 1.369v6.566c0 0.249-0.201 0.45-0.45 0.45s-0.45-0.201-0.45-0.45v-6.566c0-0.256-0.218-0.469-0.493-0.469h-3.057c-0.249 0-0.45-0.201-0.45-0.45s0.201-0.45 0.45-0.45h3.057z"></path>
<path opacity="0.797776" fill="#000" d="M15.25 2.55h-7.5c-0.387 0-0.7 0.313-0.7 0.7v1.5c0 0.387 0.313 0.7 0.7 0.7h7.5c0.387 0 0.7-0.313 0.7-0.7v-1.5c0-0.387-0.313-0.7-0.7-0.7zM15.050 3.45v1.1h-7.1v-1.1h7.1z"></path>
<path opacity="0.797776" fill="#000" d="M14 11.675c0.249 0 0.45 0.201 0.45 0.45s-0.201 0.45-0.45 0.45h-7.5c-0.249 0-0.45-0.201-0.45-0.45s0.201-0.45 0.45-0.45h7.5z"></path>
<path opacity="0.797776" fill="#000" d="M16.5 8.175c0.249 0 0.45 0.201 0.45 0.45s-0.201 0.45-0.45 0.45h-10c-0.249 0-0.45-0.201-0.45-0.45s0.201-0.45 0.45-0.45h10z"></path>
<path opacity="0.797776" fill="#000" d="M11.5 15.175c0.249 0 0.45 0.201 0.45 0.45s-0.201 0.45-0.45 0.45h-5c-0.249 0-0.45-0.201-0.45-0.45s0.201-0.45 0.45-0.45h5z"></path>
</svg>
