
<svg version="1.1" xmlns="http://www.w3.org/2000/svg" width="24" height="24" viewBox="0 0 24 24">
<path opacity="0.8"  d="M20.63 13.17c0.164-0.191 0.443-0.213 0.634-0.049 0.776 0.664 1.226 1.38 1.35 2.15 0.024 0.147 0.036 0.296 0.036 0.447 0 0.224-0.024 0.443-0.073 0.657-0.276 1.215-1.34 2.251-3.19 3.107-2.061 0.954-4.54 1.432-7.437 1.432s-5.376-0.477-7.437-1.432c-1.85-0.857-2.914-1.892-3.19-3.107-0.049-0.213-0.073-0.432-0.073-0.657 0-0.151 0.012-0.3 0.036-0.446 0.124-0.768 0.573-1.484 1.347-2.147 0.191-0.164 0.471-0.143 0.635 0.049s0.143 0.471-0.049 0.635c-0.664 0.569-1.018 1.16-1.063 1.775-0.003 0.045-0.005 0.090-0.005 0.136 0 0.1 0.007 0.199 0.022 0.297 0.149 0.997 1.055 1.88 2.719 2.651 1.941 0.899 4.294 1.348 7.059 1.348s5.117-0.449 7.059-1.348c1.664-0.771 2.571-1.654 2.719-2.651 0.015-0.098 0.022-0.197 0.022-0.297 0-0.045-0.002-0.091-0.005-0.136-0.046-0.615-0.401-1.207-1.066-1.777-0.191-0.164-0.213-0.443-0.049-0.634zM11.95 3c0.216 0 0.432 0.059 0.649 0.178l5.387 2.964c0.232 0.127 0.403 0.289 0.513 0.485 0.101 0.179 0.151 0.386 0.151 0.622v5.928c0 0.236-0.050 0.443-0.151 0.621-0.111 0.196-0.282 0.358-0.513 0.485l-5.387 2.964c-0.216 0.119-0.432 0.178-0.648 0.178s-0.432-0.059-0.648-0.178l-5.387-2.964c-0.232-0.127-0.403-0.289-0.513-0.485-0.101-0.179-0.151-0.386-0.151-0.622v-5.928c0-0.236 0.050-0.443 0.151-0.622 0.111-0.196 0.282-0.357 0.513-0.485l5.387-2.964c0.216-0.119 0.432-0.178 0.648-0.178zM11.95 3.908c-0.072 0-0.143 0.020-0.214 0.059l-5.387 2.964c-0.077 0.042-0.131 0.095-0.163 0.159-0.024 0.047-0.035 0.1-0.035 0.158v5.928c0 0.059 0.012 0.111 0.035 0.158 0.032 0.064 0.087 0.118 0.163 0.16l5.387 2.964c0.071 0.039 0.143 0.059 0.214 0.059s0.143-0.020 0.215-0.059l5.387-2.964c0.076-0.042 0.131-0.095 0.163-0.16 0.024-0.047 0.035-0.1 0.035-0.158v-5.928c0-0.059-0.012-0.112-0.035-0.158-0.032-0.064-0.087-0.117-0.163-0.159l-5.387-2.964c-0.072-0.039-0.143-0.059-0.215-0.059zM16.205 7.443c0.221-0.121 0.49-0.043 0.611 0.177s0.043 0.49-0.177 0.611l-4.040 2.223c-0.043 0.024-0.087 0.045-0.132 0.063-0.028 0.012-0.056 0.022-0.085 0.032v4.65c0 0.252-0.198 0.45-0.45 0.45s-0.45-0.198-0.45-0.45v-4.663c-0.016-0.006-0.031-0.012-0.046-0.018-0.045-0.019-0.090-0.040-0.133-0.064l-4.040-2.223c-0.221-0.122-0.299-0.39-0.177-0.611s0.39-0.299 0.611-0.177l4.040 2.223c0.027 0.015 0.054 0.026 0.082 0.035 0.042 0.013 0.086 0.019 0.132 0.019s0.090-0.006 0.132-0.019c0.029-0.009 0.056-0.021 0.083-0.035l2.693-1.482z"></path>
</svg>
