<svg width="24" height="24" viewBox="0 0 24 24" xmlns="http://www.w3.org/2000/svg"><g fill="none" fill-rule="evenodd"><path d="M0 0h24v24H0z"/><path d="M10.027 2.55H3.973c-.786 0-1.423.637-1.423 1.423v6.054c0 .786.637 1.423 1.423 1.423h6.054c.786 0 1.423-.637 1.423-1.423V3.973c0-.786-.637-1.423-1.423-1.423zm0 .9c.289 0 .523.234.523.523v6.054a.523.523 0 0 1-.523.523H3.973a.523.523 0 0 1-.523-.523V3.973c0-.289.234-.523.523-.523h6.054zm10 9.1h-6.054c-.786 0-1.423.637-1.423 1.423v6.054c0 .786.637 1.423 1.423 1.423h6.054c.786 0 1.423-.637 1.423-1.423v-6.054c0-.786-.637-1.423-1.423-1.423zm0 .9c.289 0 .523.234.523.523v6.054a.523.523 0 0 1-.523.523h-6.054a.523.523 0 0 1-.523-.523v-6.054c0-.289.234-.523.523-.523h6.054zm-10-.9H3.973c-.786 0-1.423.637-1.423 1.423v6.054c0 .786.637 1.423 1.423 1.423h6.054c.786 0 1.423-.637 1.423-1.423v-6.054c0-.786-.637-1.423-1.423-1.423zm0 .9c.289 0 .523.234.523.523v6.054a.523.523 0 0 1-.523.523H3.973a.523.523 0 0 1-.523-.523v-6.054c0-.289.234-.523.523-.523h6.054zm6.301-10.415l-3.293 3.293a.95.95 0 0 0 0 1.344l3.293 3.293a.95.95 0 0 0 1.344 0l3.293-3.293a.95.95 0 0 0 0-1.344l-3.293-3.293a.95.95 0 0 0-1.344 0zm.707.637l3.293 3.293a.05.05 0 0 1 0 .07l-3.293 3.293a.05.05 0 0 1-.07 0l-3.293-3.293a.05.05 0 0 1 0-.07l3.293-3.293a.05.05 0 0 1 .07 0z" fill-opacity=".8" fill="#000" fill-rule="nonzero"/></g></svg>