<svg width="24" height="24" viewBox="0 0 24 24" xmlns="http://www.w3.org/2000/svg"><g fill="none" fill-rule="evenodd"><path fill="none" d="M0 0h24v24H0z"/><path d="M.125.125h23.75v23.75H.125z"/><path d="M1.8 10v.268c0 .252.197.45.45.45.25 0 .45-.198.45-.45V5c0-.185.045-.322.137-.412.09-.093.228-.14.413-.14h17.5c.365 0 .55.184.55.552v5.268c0 .252.197.45.45.45.25 0 .45-.198.45-.45V5c0-.202-.038-.388-.108-.558a1.447 1.447 0 0 0-.317-.47 1.447 1.447 0 0 0-.47-.317 1.444 1.444 0 0 0-.555-.105H3.25c-.203 0-.388.035-.558.105-.172.07-.327.178-.47.318-.14.142-.247.297-.317.47-.07.17-.105.355-.105.557v5zm20.365 3.71c0-.25-.2-.448-.453-.448a.448.448 0 0 0-.447.453l.027 5.28a.53.53 0 0 1-.16.392.532.532 0 0 1-.39.163H3.25a.532.532 0 0 1-.39-.163A.529.529 0 0 1 2.7 19v-5.287c0-.253-.2-.45-.45-.45a.445.445 0 0 0-.45.45V19c0 .2.035.385.105.555.07.172.177.328.317.47.143.14.298.248.47.318.17.07.355.105.558.105h17.492a1.4 1.4 0 0 0 1.03-.425c.283-.285.423-.63.42-1.033l-.027-5.28z" fill-opacity=".8" fill="#000"/><path d="M4.655 11.555h-3.26a.445.445 0 0 0-.45.45c0 .252.197.45.45.45h3.527c.088 0 .165-.02.23-.057a.46.46 0 0 0 .163-.175L7.507 8.26l2.585 8.03c.093.288.283.383.568.293a.44.44 0 0 0 .275-.25l2.36-5.45 2.552 3.96c.163.25.37.294.623.132a.444.444 0 0 0 .157-.175l1.585-3.168.7.698c.09.09.195.133.32.133l3.423-.008c.252 0 .45-.2.45-.45 0-.253-.2-.45-.45-.45l-3.238.008-1.007-1.01a.475.475 0 0 0-.118-.083c-.267-.135-.47-.068-.605.2l-1.512 3.02-2.58-4.002a.436.436 0 0 0-.198-.17c-.275-.118-.472-.04-.592.234l-2.223 5.125-2.537-7.885a.444.444 0 0 0-.21-.255c-.13-.072-.248-.095-.35-.064-.1.03-.188.11-.26.24l-2.57 4.642z" fill-opacity=".8" fill="#000"/></g></svg>