
<svg version="1.1" xmlns="http://www.w3.org/2000/svg" width="24" height="24" viewBox="0 0 24 24">
<path d="M12.339 4.3c0.387 0 0.7 0.313 0.7 0.7s-0.313 0.7-0.7 0.7h-7.139c-0.276 0-0.5 0.224-0.5 0.5v12.6c0 0.276 0.224 0.5 0.5 0.5h12.6c0.276 0 0.5-0.224 0.5-0.5v-7.12c0-0.387 0.313-0.7 0.7-0.7s0.7 0.313 0.7 0.7v7.12c0 1.049-0.851 1.9-1.9 1.9h-12.6c-1.049 0-1.9-0.851-1.9-1.9v-12.6c0-1.049 0.851-1.9 1.9-1.9h7.139zM19.048 3.126c0.994 0 1.8 0.806 1.8 1.8v3.095c0 0.331-0.269 0.6-0.6 0.6s-0.6-0.269-0.6-0.6l-0.001-2.653-6.43 6.358c-0.275 0.272-0.718 0.269-0.99-0.006s-0.269-0.718 0.006-0.99l6.478-6.405h-2.709c-0.331 0-0.6-0.269-0.6-0.6s0.269-0.6 0.6-0.6h3.046z"></path>
</svg>
