
<svg version="1.1" xmlns="http://www.w3.org/2000/svg" width="24" height="24" viewBox="0 0 24 24">
<path d="M20.354 1.55c0.2 0 0.386 0.035 0.557 0.106s0.327 0.177 0.469 0.319c0.142 0.141 0.248 0.298 0.319 0.469s0.106 0.356 0.106 0.557v18c0 0.2-0.035 0.386-0.106 0.557s-0.177 0.327-0.319 0.469c-0.142 0.142-0.298 0.248-0.469 0.319s-0.356 0.106-0.557 0.106h-9c-0.2 0-0.386-0.035-0.557-0.106s-0.327-0.177-0.469-0.319c-0.142-0.142-0.248-0.298-0.319-0.469s-0.106-0.356-0.106-0.557v-18c0-0.2 0.035-0.386 0.106-0.557s0.177-0.327 0.319-0.469c0.142-0.142 0.298-0.248 0.469-0.319v0 0c0.171-0.071 0.356-0.106 0.557-0.106h9zM20.354 2.45h-9c-0.183 0-0.321 0.046-0.412 0.138s-0.138 0.229-0.138 0.412v18c0 0.183 0.046 0.321 0.138 0.413s0.229 0.137 0.412 0.137h9c0.183 0 0.321-0.046 0.413-0.137s0.138-0.229 0.138-0.413v-18c0-0.183-0.046-0.321-0.138-0.412s-0.229-0.138-0.413-0.138zM8.854 3.55h-1.75c-0.105 0-0.209 0.011-0.309 0.033-0.087 0.019-0.172 0.046-0.255 0.081s-0.162 0.077-0.235 0.126h-0c-0.081 0.053-0.156 0.115-0.225 0.185-0.134 0.134-0.237 0.287-0.311 0.461-0.076 0.18-0.114 0.368-0.114 0.564v14c0 0.197 0.038 0.385 0.114 0.565 0.073 0.173 0.177 0.327 0.311 0.461s0.287 0.237 0.461 0.311c0.18 0.076 0.368 0.114 0.565 0.114h1.75c0.252 0 0.45-0.198 0.45-0.45s-0.198-0.45-0.45-0.45h-1.75c-0.075 0-0.146-0.014-0.214-0.043-0.066-0.028-0.124-0.067-0.175-0.118s-0.090-0.109-0.118-0.175c-0.029-0.068-0.043-0.139-0.043-0.214v-14c0-0.045 0.005-0.088 0.015-0.13 0.007-0.028 0.016-0.056 0.028-0.084 0.028-0.066 0.067-0.124 0.118-0.175 0.028-0.028 0.059-0.053 0.092-0.074 0.026-0.017 0.054-0.032 0.083-0.044 0.027-0.012 0.055-0.021 0.084-0.028 0.042-0.010 0.086-0.015 0.13-0.015h1.75c0.252 0 0.45-0.198 0.45-0.45s-0.198-0.45-0.45-0.45zM3.604 5.55h1c0.252 0 0.45 0.198 0.45 0.45s-0.198 0.45-0.45 0.45h-1c-0.075 0-0.146 0.014-0.214 0.043-0.066 0.028-0.124 0.067-0.175 0.118-0.028 0.028-0.053 0.059-0.074 0.092-0.017 0.026-0.032 0.054-0.044 0.083-0.029 0.068-0.043 0.139-0.043 0.214v10c0 0.075 0.014 0.146 0.043 0.214 0.028 0.066 0.067 0.124 0.118 0.175s0.109 0.090 0.175 0.118c0.068 0.029 0.139 0.043 0.214 0.043h1c0.252 0 0.45 0.198 0.45 0.45s-0.198 0.45-0.45 0.45h-1c-0.196 0-0.385-0.038-0.565-0.114-0.174-0.073-0.327-0.177-0.461-0.311s-0.237-0.287-0.311-0.461c-0.076-0.18-0.114-0.368-0.114-0.565v-10c0-0.105 0.011-0.208 0.033-0.309 0.019-0.087 0.046-0.172 0.081-0.255 0.073-0.174 0.177-0.327 0.311-0.461 0.070-0.070 0.145-0.131 0.225-0.185 0.074-0.049 0.152-0.091 0.236-0.126s0.168-0.062 0.255-0.081v0c0.101-0.022 0.204-0.033 0.309-0.033z"></path>
<path d="M16.304 7.729l1.732 1.732c0.178 0.178 0.458 0.178 0.636 0s0.178-0.458 0-0.636l-2.5-2.5c-0.106-0.106-0.212-0.159-0.318-0.159s-0.212 0.053-0.318 0.159l-2.5 2.5c-0.178 0.178-0.178 0.458 0 0.636s0.458 0.178 0.636 0l1.732-1.732v7.631c0 0.252 0.198 0.45 0.45 0.45s0.45-0.198 0.45-0.45v-7.631zM17.94 18.65h-4.38c-0.252 0-0.45-0.198-0.45-0.45s0.198-0.45 0.45-0.45h4.38c0.252 0 0.45 0.198 0.45 0.45s-0.198 0.45-0.45 0.45z"></path>
</svg>
