<svg version="1.1" xmlns="http://www.w3.org/2000/svg" width="23" height="24" viewBox="0 0 23 24">
<path  d="M20.976 0.057c0.229 0 0.441 0.040 0.636 0.121s0.374 0.202 0.536 0.364c0.162 0.162 0.283 0.34 0.364 0.535s0.121 0.407 0.121 0.636v20.571c0 0.229-0.040 0.441-0.121 0.636s-0.202 0.374-0.364 0.536c-0.162 0.162-0.34 0.283-0.536 0.364s-0.407 0.121-0.636 0.121h-10.286c-0.229 0-0.441-0.040-0.636-0.121s-0.374-0.202-0.536-0.364c-0.162-0.162-0.283-0.34-0.364-0.536s-0.121-0.407-0.121-0.636v-20.571c0-0.229 0.040-0.441 0.121-0.636s0.202-0.374 0.364-0.535c0.162-0.162 0.34-0.283 0.536-0.364v0 0c0.195-0.081 0.407-0.121 0.636-0.121h10.286zM20.976 1.086h-10.286c-0.21 0-0.367 0.052-0.471 0.157s-0.157 0.262-0.157 0.471v20.571c0 0.21 0.052 0.367 0.157 0.472s0.262 0.157 0.471 0.157h10.286c0.21 0 0.367-0.052 0.471-0.157s0.157-0.262 0.157-0.472v-20.571c0-0.21-0.052-0.367-0.157-0.471s-0.262-0.157-0.471-0.157zM7.833 2.343h-2c-0.121 0-0.238 0.013-0.354 0.038-0.099 0.021-0.196 0.052-0.292 0.093s-0.185 0.088-0.269 0.144h-0c-0.092 0.061-0.178 0.131-0.257 0.211-0.153 0.153-0.271 0.328-0.355 0.527-0.087 0.206-0.13 0.42-0.13 0.645v16c0 0.225 0.043 0.44 0.13 0.645 0.084 0.198 0.202 0.374 0.355 0.527s0.328 0.271 0.527 0.355c0.206 0.087 0.421 0.13 0.645 0.13h2c0.288 0 0.514-0.226 0.514-0.514s-0.226-0.514-0.514-0.514h-2c-0.085 0-0.167-0.016-0.245-0.049-0.075-0.032-0.142-0.077-0.2-0.135s-0.103-0.125-0.135-0.2c-0.033-0.078-0.049-0.159-0.049-0.245v-16c0-0.051 0.006-0.101 0.018-0.149 0.008-0.032 0.018-0.064 0.032-0.095 0.032-0.075 0.077-0.142 0.135-0.2 0.032-0.032 0.067-0.061 0.105-0.085 0.030-0.019 0.062-0.036 0.095-0.050 0.031-0.013 0.063-0.024 0.096-0.032 0.048-0.012 0.098-0.018 0.149-0.018h2c0.288 0 0.514-0.226 0.514-0.514s-0.226-0.514-0.514-0.514zM1.833 4.629h1.143c0.288 0 0.514 0.226 0.514 0.514s-0.226 0.514-0.514 0.514h-1.143c-0.085 0-0.167 0.016-0.245 0.049-0.075 0.032-0.142 0.077-0.2 0.135-0.032 0.032-0.061 0.067-0.085 0.105-0.019 0.030-0.036 0.062-0.050 0.095-0.033 0.078-0.049 0.159-0.049 0.244v11.429c0 0.086 0.016 0.167 0.049 0.245 0.032 0.075 0.077 0.142 0.135 0.2s0.125 0.103 0.2 0.135c0.078 0.033 0.159 0.049 0.245 0.049h1.143c0.288 0 0.514 0.226 0.514 0.514s-0.226 0.514-0.514 0.514h-1.143c-0.225 0-0.44-0.043-0.645-0.13-0.198-0.084-0.374-0.202-0.527-0.355s-0.271-0.328-0.355-0.527c-0.087-0.206-0.13-0.421-0.13-0.645v-11.429c0-0.121 0.013-0.238 0.038-0.354 0.022-0.099 0.053-0.196 0.093-0.292 0.084-0.198 0.202-0.374 0.355-0.527 0.080-0.080 0.165-0.15 0.257-0.211 0.084-0.056 0.174-0.104 0.269-0.144s0.192-0.071 0.292-0.093v0c0.115-0.025 0.233-0.038 0.354-0.038z"></path>
<path d="M16.347 7.119l1.979 1.979c0.204 0.204 0.524 0.204 0.727 0s0.204-0.523 0-0.727l-2.857-2.857c-0.121-0.121-0.242-0.182-0.364-0.182s-0.242 0.061-0.364 0.182l-2.857 2.857c-0.204 0.204-0.204 0.523 0 0.727s0.524 0.204 0.727 0l1.979-1.979v8.721c0 0.288 0.226 0.514 0.514 0.514s0.514-0.226 0.514-0.514v-8.721zM18.217 19.6h-5.006c-0.288 0-0.514-0.226-0.514-0.514s0.226-0.514 0.514-0.514h5.006c0.288 0 0.514 0.226 0.514 0.514s-0.226 0.514-0.514 0.514z"></path>
</svg>
