<svg version="1.1" xmlns="http://www.w3.org/2000/svg" width="32" height="32" viewBox="0 0 32 32">
<path d="M7.729 19.512c0.359 0.37 0.35 0.961-0.019 1.32l-2.6 2.525 1.275 0.318c0.273 0.068 0.498 0.254 0.617 0.503l0.050 0.13 0.465 1.523 2.996-2.939c0.331-0.325 0.843-0.353 1.205-0.087l0.115 0.1c0.361 0.368 0.355 0.959-0.013 1.32l-4.093 4.015c-0.5 0.49-1.342 0.276-1.546-0.394l-0.76-2.488-2.391-0.594c-0.666-0.166-0.918-0.957-0.514-1.475l0.090-0.1 3.805-3.695c0.37-0.359 0.961-0.35 1.32 0.019zM24.271 19.512c0.359-0.37 0.95-0.378 1.32-0.019l3.805 3.695 0.090 0.1c0.404 0.518 0.152 1.31-0.514 1.475l-2.391 0.594-0.76 2.488c-0.205 0.67-1.046 0.884-1.546 0.394l-4.093-4.015c-0.368-0.361-0.374-0.952-0.013-1.32l0.115-0.1c0.362-0.266 0.874-0.238 1.205 0.087l2.996 2.939 0.465-1.523 0.050-0.13c0.119-0.249 0.344-0.436 0.617-0.503l1.275-0.318-2.6-2.525c-0.37-0.359-0.378-0.95-0.019-1.32zM15.996 3.386c5.389 0 9.758 4.369 9.758 9.758s-4.369 9.758-9.758 9.758c-5.389 0-9.758-4.369-9.758-9.758s4.369-9.758 9.758-9.758zM15.996 5.253c-4.358 0-7.891 3.533-7.891 7.891s3.533 7.891 7.891 7.891c4.358 0 7.891-3.533 7.891-7.891s-3.533-7.891-7.891-7.891zM15.996 9.374c2.082 0 3.77 1.688 3.77 3.77s-1.688 3.77-3.77 3.77c-2.082 0-3.77-1.688-3.77-3.77s1.688-3.77 3.77-3.77zM15.996 11.241c-1.051 0-1.903 0.852-1.903 1.903s0.852 1.903 1.903 1.903c1.051 0 1.903-0.852 1.903-1.903s-0.852-1.903-1.903-1.903z"></path>
</svg>
