<!-- Generated by IcoMoon.io -->
<svg version="1.1" xmlns="http://www.w3.org/2000/svg" width="22" height="24" viewBox="0 0 22 24">
<path opacity="0.797776" fill="#000" d="M17.041 13.481l-0.052 0.001c-0.607 0.030-1.092 0.588-1.539 1.643l-0.047 0.113-0.049-0.036c-0.305-0.217-0.659-0.33-1.055-0.33-0.768 0-1.054 0.924-0.975 2.1 0.075 1.104 0.473 2.213 1.135 2.92 0.704 0.752 1.635 1.153 2.604 1.144 0.954-0.008 1.872-0.413 2.559-1.143 0.645-0.685 1.038-1.786 1.124-2.9 0.092-1.191-0.162-2.121-0.916-2.121l-0.080 0.002c-0.371 0.016-0.711 0.145-1.014 0.377l-0.015 0.011-0.017-0.041c-0.491-1.148-1.012-1.74-1.663-1.74zM17.041 14.37c0.23 0 0.653 0.6 1.102 1.86 0.121 0.34 0.575 0.401 0.782 0.106l0.050-0.068c0.232-0.307 0.474-0.465 0.74-0.5l0.032-0.003 0.008 0.016c0.015 0.034 0.032 0.079 0.047 0.135 0.067 0.245 0.090 0.607 0.059 1.009-0.072 0.928-0.398 1.841-0.885 2.359-0.522 0.555-1.209 0.858-1.92 0.864-0.72 0.006-1.413-0.292-1.948-0.863-0.506-0.54-0.835-1.457-0.897-2.373-0.027-0.397 0.003-0.751 0.076-0.988l0.015-0.044c0.015-0.042 0.030-0.075 0.044-0.101l0.010-0.017 0.061 0.005c0.309 0.034 0.556 0.207 0.769 0.549 0.198 0.319 0.678 0.263 0.798-0.092 0.426-1.257 0.836-1.854 1.057-1.854z"></path>
<path opacity="0.797776" fill="#000" d="M17.037 20.148c0.245 0 0.444 0.199 0.444 0.444v2.222c0 0.245-0.199 0.444-0.444 0.444s-0.444-0.199-0.444-0.444v-2.222c0-0.245 0.199-0.444 0.444-0.444z"></path>
<path opacity="0.797776" fill="#000" d="M12.759 20.155c1.644 0.067 2.836 0.689 3.517 1.864 0.123 0.212 0.051 0.484-0.162 0.607s-0.484 0.051-0.607-0.162c-0.517-0.892-1.426-1.366-2.784-1.421-0.245-0.010-0.436-0.217-0.426-0.462s0.217-0.436 0.462-0.426z"></path>
<path opacity="0.797776" fill="#000" d="M21.315 20.155c-1.644 0.067-2.836 0.689-3.517 1.864-0.123 0.212-0.051 0.484 0.162 0.607s0.484 0.051 0.607-0.162c0.517-0.892 1.426-1.366 2.784-1.421 0.245-0.010 0.436-0.217 0.426-0.462s-0.217-0.436-0.462-0.426z"></path>
<path opacity="0.797776" fill="#000" d="M5.132 1.541c0.295 0 0.533 0.239 0.533 0.533s-0.239 0.533-0.533 0.533h-3.537c-0.261 0-0.469 0.205-0.469 0.454v18.661c0 0.304 0.262 0.558 0.594 0.558h8.354c0.295 0 0.533 0.239 0.533 0.533s-0.239 0.533-0.533 0.533h-8.354c-0.913 0-1.661-0.724-1.661-1.625v-18.661c0-0.842 0.689-1.521 1.535-1.521h3.537zM18.437 1.541c0.909 0 1.651 0.723 1.651 1.622v7.782c0 0.295-0.239 0.533-0.533 0.533s-0.533-0.239-0.533-0.533v-7.782c0-0.303-0.259-0.555-0.585-0.555h-3.623c-0.295 0-0.533-0.239-0.533-0.533s0.239-0.533 0.533-0.533h3.623z"></path>
<path opacity="0.797776" fill="#000" d="M14.519 0.356h-8.889c-0.458 0-0.83 0.371-0.83 0.83v1.778c0 0.458 0.371 0.83 0.83 0.83h8.889c0.458 0 0.83-0.371 0.83-0.83v-1.778c0-0.458-0.371-0.83-0.83-0.83zM14.281 1.422v1.304h-8.415v-1.304h8.415z"></path>
<path opacity="0.797776" fill="#000" d="M13.037 11.17c0.295 0 0.533 0.239 0.533 0.533s-0.239 0.533-0.533 0.533h-8.889c-0.295 0-0.533-0.239-0.533-0.533s0.239-0.533 0.533-0.533h8.889z"></path>
<path opacity="0.797776" fill="#000" d="M16 7.022c0.295 0 0.533 0.239 0.533 0.533s-0.239 0.533-0.533 0.533h-11.852c-0.295 0-0.533-0.239-0.533-0.533s0.239-0.533 0.533-0.533h11.852z"></path>
<path opacity="0.797776" fill="#000" d="M10.074 15.319c0.295 0 0.533 0.239 0.533 0.533s-0.239 0.533-0.533 0.533h-5.926c-0.295 0-0.533-0.239-0.533-0.533s0.239-0.533 0.533-0.533h5.926z"></path>
</svg>
