
<svg version="1.1" xmlns="http://www.w3.org/2000/svg" width="24" height="24" viewBox="0 0 24 24">
<path opacity="0.8" d="M12.375 10.643c0.469 0.133 0.836 0.508 0.957 0.982h4.195c0.098 0 0.195 0.010 0.288 0.031 0.080 0.018 0.159 0.043 0.236 0.075 0.161 0.068 0.304 0.165 0.428 0.289s0.221 0.267 0.289 0.428c0.071 0.167 0.106 0.342 0.106 0.525v1.28c0 0.21-0.165 0.375-0.375 0.375s-0.375-0.165-0.375-0.375v-1.28c0-0.048-0.005-0.094-0.016-0.139-0.008-0.032-0.018-0.063-0.031-0.093-0.030-0.072-0.073-0.135-0.128-0.19s-0.119-0.098-0.19-0.128c-0.074-0.031-0.151-0.047-0.233-0.047h-4.214c-0.174 0.559-0.697 0.966-1.313 0.966s-1.139-0.407-1.313-0.966h-4.214c-0.048 0-0.094 0.005-0.139 0.016-0.032 0.008-0.063 0.018-0.093 0.031-0.032 0.013-0.063 0.030-0.092 0.048-0.035 0.023-0.068 0.050-0.099 0.080s-0.057 0.063-0.080 0.099c-0.019 0.029-0.035 0.059-0.048 0.092-0.013 0.031-0.023 0.062-0.031 0.093-0.011 0.045-0.016 0.092-0.016 0.139v1.323c0 0.21-0.165 0.375-0.375 0.375s-0.375-0.165-0.375-0.375v-1.323c0-0.098 0.010-0.195 0.031-0.288l0-0c0.018-0.080 0.043-0.159 0.075-0.236s0.072-0.15 0.117-0.219h0c0.050-0.075 0.107-0.145 0.172-0.21s0.135-0.122 0.21-0.172c0.069-0.045 0.141-0.084 0.219-0.117s0.156-0.058 0.236-0.075c0.094-0.021 0.19-0.031 0.288-0.031h4.195c0.121-0.473 0.488-0.849 0.957-0.982v-0.893c0-0.21 0.165-0.375 0.375-0.375s0.375 0.165 0.375 0.375v0.893zM12 12.591c0.345 0 0.625-0.28 0.625-0.625s-0.28-0.625-0.625-0.625c-0.345 0-0.625 0.28-0.625 0.625s0.28 0.625 0.625 0.625z"></path>
<path opacity="0.8" d="M15.073 2.404v0c0.168 0.069 0.321 0.174 0.46 0.312s0.243 0.292 0.313 0.46c0.069 0.168 0.104 0.35 0.104 0.546v5.054c0 0.196-0.035 0.378-0.104 0.546h-0c-0.069 0.168-0.174 0.321-0.313 0.46s-0.292 0.243-0.46 0.313c-0.168 0.069-0.35 0.104-0.546 0.104h-5.054c-0.196 0-0.379-0.035-0.546-0.104s-0.321-0.174-0.46-0.313-0.243-0.292-0.313-0.46c-0.069-0.168-0.104-0.35-0.104-0.546v-5.054c0-0.196 0.035-0.378 0.104-0.546h0c0.069-0.168 0.174-0.321 0.313-0.46s0.292-0.243 0.46-0.312c0.168-0.070 0.35-0.104 0.546-0.104h5.054c0.196 0 0.379 0.035 0.546 0.104zM14.527 3.2h-5.054c-0.174 0-0.305 0.044-0.392 0.131s-0.131 0.218-0.131 0.392v5.054c0 0.174 0.044 0.305 0.131 0.392s0.218 0.131 0.392 0.131h5.054c0.174 0 0.305-0.044 0.392-0.131s0.131-0.218 0.131-0.392v-5.054c0-0.072-0.013-0.139-0.038-0.201h-0c-0.026-0.062-0.064-0.118-0.115-0.169s-0.107-0.089-0.169-0.115c-0.062-0.025-0.129-0.038-0.201-0.038zM8.027 13.8c0.196 0 0.379 0.035 0.546 0.104s0.321 0.174 0.46 0.312 0.243 0.292 0.313 0.46c0.069 0.168 0.104 0.35 0.104 0.546v5.054c0 0.197-0.035 0.379-0.104 0.546s-0.174 0.321-0.313 0.46-0.292 0.243-0.46 0.313c-0.168 0.069-0.35 0.104-0.546 0.104h-5.054c-0.196 0-0.379-0.035-0.546-0.104s-0.321-0.174-0.46-0.313-0.243-0.292-0.313-0.46c-0.069-0.168-0.104-0.35-0.104-0.546v-5.054c0-0.196 0.035-0.378 0.104-0.546s0.174-0.321 0.313-0.46c0.139-0.139 0.292-0.243 0.46-0.312s0.35-0.104 0.546-0.104h5.054zM21.573 13.904c-0.168-0.070-0.35-0.104-0.546-0.104h-5.054c-0.196 0-0.379 0.035-0.546 0.104s-0.321 0.174-0.46 0.312-0.243 0.292-0.313 0.46c-0.069 0.168-0.104 0.35-0.104 0.546v5.054c0 0.197 0.035 0.378 0.104 0.546s0.174 0.321 0.313 0.46 0.292 0.243 0.46 0.313c0.168 0.069 0.35 0.104 0.546 0.104h5.054c0.196 0 0.379-0.035 0.546-0.104s0.321-0.174 0.46-0.313 0.243-0.292 0.313-0.46c0.069-0.168 0.104-0.35 0.104-0.546v-5.054c0-0.196-0.035-0.378-0.104-0.546s-0.174-0.321-0.313-0.46c-0.139-0.139-0.292-0.243-0.46-0.312zM8.027 14.7h-5.054c-0.174 0-0.305 0.044-0.392 0.131s-0.131 0.218-0.131 0.392v5.054c0 0.174 0.044 0.305 0.131 0.392s0.218 0.131 0.392 0.131h5.054c0.174 0 0.305-0.044 0.392-0.131s0.131-0.218 0.131-0.392v-5.054c0-0.072-0.013-0.139-0.038-0.201s-0.064-0.118-0.115-0.169-0.107-0.089-0.169-0.115c-0.062-0.025-0.129-0.038-0.201-0.038zM15.973 14.7h5.054c0.072 0 0.139 0.013 0.201 0.038s0.118 0.064 0.169 0.115c0.051 0.051 0.089 0.107 0.115 0.169s0.038 0.129 0.038 0.201v5.054c0 0.174-0.044 0.305-0.131 0.392s-0.218 0.131-0.392 0.131h-5.054c-0.174 0-0.305-0.044-0.392-0.131s-0.131-0.218-0.131-0.392v-5.054c0-0.174 0.044-0.305 0.131-0.392s0.218-0.131 0.392-0.131z"></path>
</svg>
