<svg version="1.1" xmlns="http://www.w3.org/2000/svg" width="26" height="24" viewBox="0 0 26 24">
<path d="M13.385 10.33c0.577 0.163 1.029 0.626 1.178 1.209h5.163c0.121 0 0.239 0.013 0.355 0.038 0.099 0.022 0.196 0.053 0.291 0.093 0.199 0.084 0.374 0.203 0.527 0.355s0.271 0.329 0.355 0.527c0.087 0.206 0.131 0.421 0.131 0.646v1.575c0 0.258-0.203 0.462-0.462 0.462s-0.462-0.203-0.462-0.462v-1.575c0-0.059-0.007-0.116-0.020-0.172-0.009-0.039-0.022-0.077-0.038-0.115-0.037-0.088-0.090-0.166-0.158-0.234s-0.146-0.121-0.234-0.158c-0.091-0.038-0.186-0.058-0.286-0.058h-5.186c-0.214 0.688-0.857 1.189-1.616 1.189s-1.402-0.501-1.616-1.189h-5.186c-0.059 0-0.116 0.007-0.172 0.020-0.039 0.009-0.077 0.022-0.115 0.038-0.040 0.017-0.077 0.037-0.113 0.060-0.043 0.028-0.084 0.061-0.121 0.098s-0.070 0.078-0.098 0.121c-0.023 0.035-0.043 0.073-0.060 0.113-0.016 0.038-0.028 0.076-0.038 0.115-0.013 0.056-0.020 0.113-0.020 0.172v1.628c0 0.258-0.203 0.462-0.462 0.462s-0.462-0.203-0.462-0.462v-1.628c0-0.121 0.013-0.239 0.038-0.355v-0h0c0.022-0.099 0.053-0.196 0.093-0.291s0.088-0.185 0.144-0.269h0c0.061-0.092 0.132-0.178 0.211-0.258s0.166-0.15 0.258-0.212c0.084-0.056 0.174-0.104 0.269-0.144s0.192-0.071 0.291-0.093c0.116-0.025 0.234-0.038 0.355-0.038h5.163c0.149-0.583 0.601-1.045 1.178-1.209v-1.099c0-0.258 0.203-0.462 0.462-0.462s0.462 0.203 0.462 0.462v1.099zM12.923 12.728c0.424 0 0.769-0.345 0.769-0.769s-0.345-0.769-0.769-0.769c-0.424 0-0.769 0.345-0.769 0.769s0.345 0.769 0.769 0.769z"></path>
<path d="M16.706 0.19v0c0.206 0.085 0.395 0.214 0.566 0.385s0.299 0.36 0.385 0.566c0.085 0.206 0.128 0.431 0.128 0.672v6.221c0 0.242-0.043 0.466-0.128 0.672h-0c-0.085 0.206-0.214 0.395-0.385 0.566s-0.36 0.299-0.566 0.385c-0.206 0.085-0.431 0.128-0.672 0.128h-6.22c-0.242 0-0.466-0.043-0.672-0.128s-0.395-0.214-0.566-0.385-0.299-0.36-0.385-0.566c-0.085-0.206-0.128-0.43-0.128-0.672v-6.221c0-0.242 0.043-0.466 0.128-0.672h0c0.085-0.206 0.214-0.395 0.385-0.566s0.36-0.299 0.566-0.385c0.206-0.086 0.431-0.128 0.672-0.128h6.22c0.242 0 0.466 0.043 0.672 0.128zM16.033 1.169h-6.22c-0.215 0-0.375 0.054-0.483 0.161s-0.161 0.268-0.161 0.483v6.221c0 0.215 0.054 0.375 0.161 0.483s0.268 0.161 0.483 0.161h6.22c0.215 0 0.375-0.054 0.483-0.161s0.161-0.268 0.161-0.483v-6.221c0-0.089-0.016-0.171-0.047-0.247h-0c-0.031-0.076-0.079-0.145-0.141-0.208s-0.132-0.11-0.208-0.142c-0.076-0.031-0.158-0.047-0.247-0.047zM8.033 14.215c0.242 0 0.466 0.043 0.672 0.128s0.395 0.214 0.566 0.385 0.299 0.36 0.385 0.566c0.085 0.206 0.128 0.431 0.128 0.672v6.221c0 0.242-0.043 0.466-0.128 0.672s-0.214 0.395-0.385 0.566-0.36 0.299-0.566 0.385c-0.206 0.085-0.431 0.128-0.672 0.128h-6.22c-0.242 0-0.466-0.043-0.672-0.128s-0.395-0.214-0.566-0.385-0.299-0.36-0.385-0.566c-0.085-0.206-0.128-0.43-0.128-0.672v-6.221c0-0.242 0.043-0.466 0.128-0.672s0.214-0.395 0.385-0.566c0.171-0.171 0.36-0.299 0.566-0.385s0.43-0.128 0.672-0.128h6.22zM24.706 14.344c-0.206-0.086-0.43-0.128-0.672-0.128h-6.22c-0.242 0-0.466 0.043-0.672 0.128s-0.395 0.214-0.566 0.385-0.299 0.36-0.385 0.566c-0.085 0.206-0.128 0.431-0.128 0.672v6.221c0 0.242 0.043 0.466 0.128 0.672s0.214 0.395 0.385 0.566 0.36 0.299 0.566 0.385c0.206 0.085 0.431 0.128 0.672 0.128h6.22c0.242 0 0.466-0.043 0.672-0.128s0.395-0.214 0.566-0.385 0.299-0.36 0.385-0.566c0.085-0.206 0.128-0.43 0.128-0.672v-6.221c0-0.242-0.043-0.466-0.128-0.672s-0.214-0.395-0.385-0.566c-0.171-0.171-0.36-0.299-0.566-0.385zM8.033 15.323h-6.22c-0.215 0-0.375 0.054-0.483 0.161s-0.161 0.268-0.161 0.483v6.221c0 0.215 0.054 0.375 0.161 0.483s0.268 0.161 0.483 0.161h6.22c0.215 0 0.375-0.054 0.483-0.161s0.161-0.268 0.161-0.483v-6.221c0-0.089-0.016-0.171-0.047-0.247s-0.079-0.145-0.141-0.208-0.132-0.11-0.208-0.142c-0.076-0.031-0.158-0.047-0.247-0.047zM17.813 15.323h6.22c0.089 0 0.171 0.016 0.247 0.047s0.145 0.079 0.208 0.142c0.063 0.063 0.11 0.132 0.141 0.208s0.047 0.158 0.047 0.247v6.221c0 0.215-0.054 0.375-0.161 0.483s-0.268 0.161-0.483 0.161h-6.22c-0.215 0-0.375-0.054-0.483-0.161s-0.161-0.268-0.161-0.483v-6.221c0-0.215 0.054-0.375 0.161-0.483s0.268-0.161 0.483-0.161z"></path>
</svg>
