
<svg version="1.1" xmlns="http://www.w3.org/2000/svg" width="24" height="24" viewBox="0 0 24 24">
<path  d="M7.158 0.967c0.394 0 0.714 0.307 0.714 0.686 0 0.341-0.259 0.624-0.598 0.677l-0.116 0.009h-2.776c-1.511 0-2.747 1.128-2.848 2.555l-0.007 0.188v13.837c0 1.452 1.174 2.64 2.659 2.737l0.195 0.006h14.781c1.511 0 2.747-1.128 2.848-2.555l0.007-0.188v-1.876c0-0.379 0.319-0.686 0.714-0.686 0.355 0 0.649 0.249 0.704 0.574l0.009 0.111v1.876c0 2.199-1.795 3.995-4.054 4.109l-0.227 0.006h-14.781c-2.288 0-4.158-1.725-4.276-3.896l-0.006-0.219v-13.837c0-2.199 1.795-3.995 4.054-4.109l0.227-0.006h2.776z"></path>
<path  d="M21.279 4.292l0.008 0.153v7.032c0 0.376-0.317 0.681-0.708 0.681-0.352 0-0.644-0.247-0.699-0.57l-0.009-0.11 0-6.298-10.458 10.050c-0.277 0.266-0.725 0.266-1.002 0-0.249-0.239-0.274-0.612-0.075-0.878l0.075-0.084 10.457-10.049-6.552 0.001c-0.391 0-0.708-0.305-0.708-0.681 0-0.338 0.257-0.619 0.593-0.672l0.115-0.009h7.318c0.859 0 1.565 0.63 1.645 1.435z"></path>
</svg>
