<svg version="1.1" xmlns="http://www.w3.org/2000/svg" width="25" height="24" viewBox="0 0 25 24">
<path d="M1.522 9.366v-2.451c0-0.325 0.071-0.609 0.214-0.849h0c0.141-0.237 0.351-0.433 0.631-0.588l9.431-5.216c0.525-0.29 1.050-0.29 1.575 0l9.431 5.216c0.564 0.312 0.845 0.791 0.845 1.437v1.994c0.843 0.231 1.463 1.004 1.463 1.92 0 1.098-0.892 1.99-1.99 1.99s-1.99-0.892-1.99-1.99c0-0.916 0.62-1.688 1.463-1.92v-1.994c0-0.232-0.101-0.404-0.302-0.515l-9.431-5.216c-0.092-0.051-0.185-0.077-0.277-0.077s-0.185 0.026-0.277 0.077l-9.431 5.216c-0.201 0.111-0.302 0.283-0.302 0.515v2.451c0 0.295-0.232 0.527-0.527 0.527s-0.527-0.232-0.527-0.527zM23.122 11.766c0.517 0 0.937-0.42 0.937-0.937s-0.42-0.936-0.937-0.936c-0.517 0-0.937 0.42-0.937 0.936s0.42 0.937 0.937 0.937zM4.039 13.171c0-1.098-0.892-1.99-1.99-1.99s-1.99 0.892-1.99 1.99c0 0.916 0.62 1.688 1.463 1.92v1.994c0 0.326 0.071 0.609 0.214 0.849 0.141 0.237 0.351 0.433 0.631 0.588l9.431 5.216c0.525 0.29 1.050 0.29 1.575 0l9.431-5.216c0.564-0.312 0.845-0.791 0.845-1.437v-2.45c0-0.295-0.232-0.527-0.527-0.527s-0.527 0.232-0.527 0.527v2.45c0 0.232-0.101 0.404-0.302 0.515l-9.431 5.216c-0.185 0.102-0.37 0.102-0.555 0l-9.431-5.216c-0.099-0.054-0.173-0.123-0.223-0.207-0.052-0.087-0.078-0.19-0.078-0.308v-1.994c0.843-0.231 1.463-1.004 1.463-1.92zM2.985 13.171c0 0.517-0.42 0.937-0.937 0.937s-0.937-0.42-0.937-0.937c0-0.517 0.42-0.936 0.937-0.936s0.937 0.42 0.937 0.936z"></path>
<path id="image-icon" d="M15.805 7.463c0.052 0 0.102 0.005 0.152 0.016 0.045 0.010 0.090 0.024 0.133 0.042s0.083 0.040 0.121 0.065l0 0c0.040 0.027 0.077 0.057 0.111 0.091s0.065 0.072 0.092 0.111v0c0.025 0.038 0.047 0.078 0.065 0.121s0.032 0.088 0.042 0.133c0.010 0.050 0.016 0.1 0.016 0.152v4.244h1.902c0.052 0 0.102 0.005 0.152 0.016 0.045 0.009 0.090 0.023 0.133 0.042s0.083 0.040 0.121 0.065c0.040 0.027 0.077 0.057 0.112 0.092s0.065 0.072 0.092 0.111c0.025 0.038 0.047 0.078 0.065 0.121s0.032 0.088 0.042 0.133v0 0l0 0.001c0.010 0.049 0.016 0.1 0.016 0.152v1.756c0 0.052-0.005 0.102-0.016 0.152-0.010 0.045-0.024 0.090-0.042 0.133s-0.040 0.083-0.065 0.121c-0.027 0.040-0.057 0.077-0.092 0.111s-0.072 0.065-0.112 0.092c-0.038 0.025-0.078 0.047-0.121 0.065s-0.088 0.033-0.133 0.042h-0c-0.049 0.010-0.1 0.016-0.152 0.016h-11.707c-0.052 0-0.102-0.005-0.151-0.016h-0c-0.045-0.009-0.090-0.023-0.133-0.042s-0.083-0.040-0.121-0.065h-0c-0.040-0.027-0.077-0.057-0.112-0.092s-0.065-0.072-0.092-0.111h-0c-0.025-0.038-0.047-0.078-0.065-0.121s-0.032-0.088-0.042-0.133v0 0c-0.010-0.049-0.016-0.1-0.016-0.152v-1.756c0-0.052 0.005-0.102 0.016-0.152 0.010-0.045 0.024-0.090 0.042-0.133s0.040-0.083 0.065-0.121c0.027-0.040 0.057-0.077 0.092-0.111s0.072-0.065 0.112-0.092c0.038-0.025 0.078-0.047 0.121-0.065s0.088-0.033 0.133-0.042h0c0.049-0.010 0.1-0.016 0.152-0.016h1.902v-1.61c0-0.052 0.005-0.102 0.016-0.152 0.010-0.045 0.024-0.090 0.042-0.133s0.040-0.083 0.065-0.121c0.027-0.040 0.057-0.077 0.092-0.111s0.072-0.065 0.112-0.092c0.038-0.025 0.078-0.047 0.121-0.065s0.088-0.033 0.133-0.042c0.049-0.010 0.1-0.016 0.152-0.016h3.951v-1.902c0-0.052 0.005-0.102 0.016-0.152 0.010-0.045 0.024-0.090 0.042-0.133s0.040-0.083 0.065-0.121h0c0.027-0.040 0.057-0.077 0.092-0.111s0.072-0.065 0.112-0.092c0.038-0.025 0.078-0.047 0.121-0.065s0.088-0.033 0.133-0.042c0.049-0.011 0.1-0.016 0.152-0.016h1.756zM13.317 10.976h-1.463v1.463h1.463v-1.463zM14.195 12.439h1.463v-1.463h-1.463v1.463zM13.317 13.317h-1.463v1.463h1.463v-1.463zM14.195 14.78h1.463v-1.463h-1.463v1.463zM15.659 10.098v-1.756h-1.463v1.756h1.463zM16.537 14.78h1.756v-1.463h-1.756v1.463zM10.976 12.439v-1.463h-1.463v1.463h1.463zM8.634 13.317h-1.756v1.463h1.756v-1.463zM10.976 14.78v-1.463h-1.463v1.463h1.463z"></path>
</svg>
