
<svg version="1.1" xmlns="http://www.w3.org/2000/svg" width="22" height="24" viewBox="0 0 22 24">
<path d="M10.909 0.327c2.397 0 4.24 3.825 4.727 8.943 4.189 2.981 6.58 6.49 5.382 8.566-0.845 1.463-3.196 1.738-6.148 1.025-0.858 2.913-2.272 4.812-3.961 4.812-2.397 0-4.24-3.825-4.727-8.943-4.189-2.981-6.58-6.49-5.382-8.566 0.845-1.463 3.196-1.738 6.148-1.025 0.858-2.913 2.272-4.812 3.961-4.812zM7.255 15.456l0.033 0.247 0.046 0.312 0.024 0.154 0.051 0.305c0.106 0.604 0.231 1.178 0.374 1.715l0.073 0.265c0.050 0.175 0.101 0.345 0.154 0.511l0.081 0.246 0.041 0.12 0.085 0.235c0.717 1.932 1.685 3.124 2.691 3.124s1.975-1.192 2.691-3.124l0.085-0.235 0.041-0.12 0.081-0.246c0.053-0.166 0.105-0.337 0.154-0.511l-0.043 0.149c-1.708-0.512-3.572-1.323-5.436-2.399-0.421-0.243-0.83-0.493-1.226-0.748zM15.73 10.564l0.003 0.094c0.020 0.44 0.030 0.888 0.030 1.342 0 2.153-0.23 4.173-0.641 5.908 0.125 0.030 0.248 0.059 0.37 0.085l0.253 0.053c0.042 0.008 0.083 0.016 0.125 0.024l0.246 0.044c2.032 0.345 3.548 0.103 4.051-0.769s-0.045-2.306-1.36-3.892l-0.161-0.191c-0.028-0.032-0.055-0.064-0.083-0.096l-0.172-0.193c-0.117-0.129-0.239-0.259-0.366-0.389l-0.193-0.196c-0.393-0.392-0.827-0.788-1.298-1.181l-0.238-0.197c-0.040-0.033-0.081-0.065-0.121-0.098l-0.247-0.196c-0.065-0.051-0.131-0.101-0.197-0.152zM7.648 6.352l-0.027 0.12c-0.077 0.339-0.148 0.691-0.211 1.053l-0.051 0.305-0.024 0.154-0.046 0.312c-0.059 0.419-0.108 0.851-0.147 1.293l-0.027 0.334c-0.051 0.671-0.077 1.366-0.077 2.077s0.027 1.405 0.077 2.077l0.009 0.11 0.091 0.062c0.445 0.304 0.91 0.601 1.394 0.89l0.366 0.215c0.616 0.355 1.23 0.679 1.837 0.971l0.303 0.143c0.403 0.187 0.801 0.361 1.194 0.519l0.293 0.116c0.049 0.019 0.097 0.038 0.146 0.056l0.289 0.108c0.387 0.141 0.766 0.268 1.136 0.38 0.088-0.376 0.168-0.768 0.239-1.173l0.051-0.305 0.024-0.154 0.046-0.312c0.059-0.419 0.108-0.851 0.147-1.293l0.027-0.334c0.051-0.671 0.077-1.366 0.077-2.077s-0.027-1.405-0.077-2.077l-0.009-0.11-0.090-0.062c-0.445-0.304-0.91-0.601-1.394-0.89l-0.366-0.215c-0.616-0.355-1.23-0.679-1.837-0.971l-0.303-0.143c-0.403-0.187-0.801-0.361-1.194-0.519l-0.293-0.116c-0.049-0.019-0.097-0.038-0.146-0.056l-0.289-0.108c-0.387-0.141-0.766-0.268-1.136-0.38zM5.701 5.886c-2.032-0.345-3.548-0.103-4.051 0.769s0.045 2.306 1.36 3.892l0.161 0.191c0.028 0.032 0.055 0.064 0.083 0.096l0.172 0.193c0.117 0.129 0.239 0.259 0.366 0.389l0.193 0.196c0.393 0.392 0.827 0.788 1.298 1.181l0.238 0.197c0.040 0.033 0.081 0.065 0.121 0.098l0.247 0.196c0.065 0.051 0.131 0.101 0.197 0.152-0.022-0.471-0.033-0.95-0.033-1.436 0-2.153 0.23-4.173 0.641-5.908-0.125-0.030-0.248-0.059-0.37-0.085l-0.253-0.053c-0.042-0.008-0.083-0.016-0.125-0.024zM10.909 1.309c-1.006 0-1.975 1.192-2.691 3.124l-0.085 0.235-0.041 0.12-0.081 0.246c-0.053 0.166-0.105 0.337-0.154 0.511l0.043-0.149c1.708 0.512 3.572 1.323 5.436 2.399 0.421 0.243 0.83 0.493 1.226 0.748l-0.033-0.247-0.046-0.312-0.024-0.154-0.051-0.305c-0.106-0.604-0.231-1.178-0.374-1.715l-0.073-0.265c-0.050-0.175-0.101-0.345-0.154-0.511l-0.081-0.246-0.041-0.12-0.085-0.235c-0.717-1.932-1.685-3.124-2.691-3.124z"></path>
<path d="M21.018 6.164c-0.696-1.206-2.393-1.617-4.684-1.303-0.269 0.037-0.457 0.284-0.42 0.553s0.284 0.457 0.553 0.42c1.939-0.266 3.258 0.054 3.701 0.821 0.503 0.872-0.045 2.306-1.36 3.892l-0.161 0.191c-0.028 0.032-0.055 0.064-0.083 0.096l-0.172 0.193c-0.117 0.129-0.239 0.259-0.366 0.389l-0.193 0.196c-0.393 0.392-0.827 0.788-1.298 1.181l-0.238 0.197c-0.040 0.033-0.081 0.065-0.121 0.098l-0.247 0.196c-0.334 0.261-0.683 0.519-1.046 0.774l-0.275 0.191c-0.556 0.38-1.144 0.75-1.76 1.105s-1.23 0.679-1.837 0.971l-0.303 0.143c-0.403 0.187-0.801 0.361-1.194 0.519l-0.293 0.116c-0.049 0.019-0.097 0.038-0.146 0.056l-0.289 0.108c-0.576 0.211-1.136 0.389-1.672 0.533l-0.266 0.069c-0.176 0.044-0.349 0.085-0.52 0.122l-0.253 0.053c-0.042 0.008-0.083 0.016-0.125 0.024l-0.246 0.044c-2.032 0.345-3.548 0.103-4.051-0.769s0.045-2.306 1.36-3.892l0.161-0.191c0.028-0.032 0.055-0.064 0.083-0.096l0.172-0.193c0.117-0.129 0.239-0.259 0.366-0.389l0.193-0.196c0.393-0.392 0.827-0.788 1.298-1.181l0.238-0.197c0.040-0.033 0.081-0.065 0.121-0.098l0.247-0.196c0.334-0.261 0.683-0.519 1.046-0.774l0.275-0.191c0.556-0.38 1.144-0.75 1.76-1.105 1.252-0.723 2.524-1.332 3.76-1.804 0.253-0.097 0.38-0.381 0.283-0.634s-0.381-0.38-0.634-0.283c-1.285 0.491-2.604 1.122-3.901 1.871-5.566 3.213-9.085 7.609-7.682 10.041s6.971 1.581 12.536-1.632c5.566-3.213 9.085-7.609 7.682-10.041z"></path>
</svg>
