
<svg version="1.1" xmlns="http://www.w3.org/2000/svg" width="24" height="24" viewBox="0 0 24 24">
<path d="M13.6 0.895c0.757 1.463 1.357 3.109 1.781 4.877 1.389-0.463 2.669-1.212 3.766-2.206 0.184-0.167 0.469-0.153 0.636 0.031s0.153 0.469-0.031 0.636c-1.213 1.099-2.634 1.922-4.175 2.422 0.353 1.747 0.538 3.597 0.538 5.494 0 1.853-0.177 3.662-0.514 5.373 1.532 0.501 2.944 1.321 4.151 2.414 0.184 0.167 0.198 0.451 0.031 0.636s-0.451 0.198-0.636 0.031c-1.089-0.987-2.36-1.732-3.737-2.197-0.406 1.73-0.98 3.346-1.704 4.791-0.111 0.222-0.382 0.312-0.604 0.2s-0.312-0.382-0.2-0.604c0.699-1.394 1.253-2.959 1.643-4.639-0.822-0.202-1.675-0.306-2.544-0.306-0.848 0-1.68 0.099-2.483 0.291 0.391 1.685 0.946 3.256 1.647 4.654 0.111 0.222 0.022 0.493-0.2 0.604s-0.493 0.022-0.604-0.2c-0.727-1.45-1.303-3.073-1.709-4.81-1.353 0.447-2.604 1.165-3.685 2.116-0.187 0.164-0.471 0.146-0.635-0.040s-0.146-0.471 0.040-0.635c1.196-1.053 2.587-1.843 4.090-2.326-0.336-1.705-0.511-3.507-0.511-5.352 0-1.89 0.184-3.734 0.535-5.475-1.512-0.482-2.911-1.274-4.114-2.333-0.187-0.164-0.205-0.449-0.040-0.635s0.449-0.205 0.635-0.040c1.088 0.958 2.349 1.679 3.713 2.126 0.424-1.776 1.026-3.429 1.786-4.897 0.114-0.221 0.386-0.307 0.606-0.193s0.307 0.386 0.193 0.606c-0.731 1.412-1.31 3.009-1.718 4.727 0.795 0.188 1.617 0.285 2.454 0.285 0.859 0 1.702-0.102 2.515-0.299-0.407-1.713-0.985-3.305-1.714-4.713-0.114-0.221-0.028-0.492 0.193-0.606s0.492-0.028 0.606 0.193zM14.707 6.901l-0.047 0.011c-0.861 0.203-1.752 0.308-2.66 0.308-0.903 0-1.789-0.104-2.646-0.305-0.331 1.663-0.504 3.426-0.504 5.234 0 1.763 0.165 3.484 0.48 5.111 0.864-0.205 1.759-0.311 2.67-0.311 0.933 0 1.848 0.111 2.731 0.325 0.317-1.631 0.483-3.356 0.483-5.125 0-1.814-0.175-3.581-0.507-5.249z"></path>
<path d="M12 0.36c6.429 0 11.64 5.211 11.64 11.64 0 0.044-0 0.087-0.001 0.131 0.001 0.006 0.001 0.013 0.001 0.019l-0.001 0.025c-0.093 6.348-5.269 11.465-11.639 11.465-6.429 0-11.64-5.211-11.64-11.64l0 0.166c-0-0.005-0-0.011-0-0.016l0.001-0.015-0.001-0.135c0-6.36 5.101-11.529 11.435-11.638zM12 1.44c-5.701 0-10.348 4.518-10.553 10.17l5.189 0c0.298 0 0.54 0.242 0.54 0.54 0 0.283-0.218 0.516-0.496 0.538l-0.044 0.002-5.174-0c0.355 5.511 4.937 9.87 10.538 9.87s10.182-4.36 10.538-9.87l-5.114 0c-0.298 0-0.54-0.242-0.54-0.54 0-0.283 0.218-0.516 0.496-0.538l0.044-0.002 5.13-0c-0.205-5.651-4.851-10.17-10.553-10.17zM13.87 11.61c0.298 0 0.54 0.242 0.54 0.54 0 0.283-0.218 0.516-0.496 0.538l-0.044 0.002h-3.651c-0.298 0-0.54-0.242-0.54-0.54 0-0.283 0.218-0.516 0.496-0.538l0.044-0.002h3.651z"></path>
</svg>
