
<svg version="1.1" xmlns="http://www.w3.org/2000/svg" width="24" height="24" viewBox="0 0 24 24">
<path fill="#161616" d="M5.44 16.526c1.123 0 2.033 0.91 2.033 2.033 0 0.351-0.089 0.682-0.246 0.97 1.473 0.985 3.207 1.52 5.022 1.52 1.275 0 2.513-0.264 3.654-0.768 0.227-0.1 0.493 0.002 0.593 0.23s-0.002 0.493-0.23 0.593c-1.255 0.554-2.616 0.844-4.017 0.844-2.029 0-3.967-0.609-5.604-1.727l-0.018-0.013-0.102 0.069c-0.314 0.199-0.686 0.313-1.085 0.313-1.123 0-2.033-0.91-2.033-2.033s0.91-2.033 2.033-2.033zM20.988 7.477c0.63 1.324 0.962 2.775 0.962 4.273 0 2.036-0.614 3.981-1.74 5.622 0.241 0.334 0.383 0.744 0.383 1.187 0 1.123-0.91 2.033-2.033 2.033s-2.033-0.91-2.033-2.033c0-1.123 0.91-2.033 2.033-2.033 0.351 0 0.682 0.089 0.97 0.246 0.985-1.472 1.52-3.206 1.52-5.022 0-1.363-0.301-2.683-0.875-3.886-0.107-0.224-0.012-0.493 0.213-0.6s0.493-0.012 0.6 0.213zM18.56 17.426c-0.626 0-1.133 0.507-1.133 1.133s0.507 1.133 1.133 1.133c0.626 0 1.133-0.507 1.133-1.133s-0.507-1.133-1.133-1.133zM5.44 17.426c-0.626 0-1.133 0.507-1.133 1.133s0.507 1.133 1.133 1.133c0.626 0 1.133-0.507 1.133-1.133s-0.507-1.133-1.133-1.133zM5.44 2.955c1.123 0 2.033 0.91 2.033 2.033s-0.91 2.033-2.033 2.033c-0.31 0-0.604-0.069-0.867-0.193-1.050 1.503-1.624 3.293-1.624 5.172 0 1.287 0.268 2.535 0.781 3.683 0.101 0.227-0.001 0.493-0.228 0.594s-0.493-0.001-0.594-0.228c-0.564-1.264-0.859-2.636-0.859-4.050 0-2.082 0.641-4.067 1.813-5.728-0.285-0.35-0.456-0.797-0.456-1.283 0-1.123 0.91-2.033 2.033-2.033zM11.75 2.050c1.914 0 3.749 0.542 5.328 1.545l0.118 0.077-0.118-0.077c0.371-0.394 0.897-0.64 1.481-0.64 1.123 0 2.033 0.91 2.033 2.033s-0.91 2.033-2.033 2.033c-1.123 0-2.033-0.91-2.033-2.033 0-0.215 0.033-0.422 0.095-0.616-1.441-0.923-3.119-1.422-4.871-1.422-1.21 0-2.386 0.237-3.479 0.693-0.229 0.096-0.493-0.013-0.588-0.242s0.013-0.493 0.242-0.588c1.201-0.501 2.495-0.762 3.825-0.762zM18.56 3.855c-0.626 0-1.133 0.507-1.133 1.133s0.507 1.133 1.133 1.133c0.626 0 1.133-0.507 1.133-1.133s-0.507-1.133-1.133-1.133zM5.44 3.855c-0.626 0-1.133 0.507-1.133 1.133s0.507 1.133 1.133 1.133c0.626 0 1.133-0.507 1.133-1.133s-0.507-1.133-1.133-1.133z"></path>
<path  d="M14.75 7.125c0.463 0 0.909 0.12 1.302 0.345 0.222 0.127 0.254 0.433 0.065 0.604l-1.124 1.012 0.402 0.446 1.139-1.025c0.178-0.16 0.454-0.114 0.573 0.087l0.017 0.031c0.166 0.349 0.253 0.731 0.253 1.125 0 1.45-1.175 2.625-2.625 2.625-0.303 0-0.6-0.052-0.879-0.151l-0.034-0.013-4.658 4.252c-0.344 0.314-0.871 0.302-1.202-0.021l-0.036-0.037-0.526-0.593c-0.318-0.358-0.289-0.905 0.064-1.227l4.702-4.292-0.010-0.050c-0.025-0.129-0.039-0.26-0.044-0.393l-0.002-0.1c0-1.45 1.175-2.625 2.625-2.625zM14.693 12.969l0.031 0.021 0.029 0.025 1.687 1.568c0.341 0.317 0.372 0.843 0.079 1.198l-0.048 0.053-0.539 0.539c-0.33 0.33-0.856 0.341-1.2 0.035l-0.060-0.059-1.565-1.687c-0.141-0.152-0.132-0.389 0.020-0.53 0.142-0.132 0.36-0.133 0.502-0.007l0.027 0.027 1.568 1.69c0.043 0.043 0.111 0.048 0.159 0.014l0.017-0.014 0.534-0.534c0.042-0.045 0.044-0.112 0.009-0.16l-0.015-0.017-1.687-1.568c-0.152-0.141-0.16-0.378-0.019-0.53 0.123-0.133 0.32-0.156 0.469-0.065zM14.75 7.875c-1.036 0-1.875 0.839-1.875 1.875 0 0.191 0.029 0.378 0.084 0.557 0.043 0.139 0.002 0.29-0.105 0.388l-4.868 4.444c-0.051 0.046-0.055 0.124-0.009 0.175l0.521 0.587c0.047 0.051 0.126 0.055 0.177 0.008l4.836-4.414c0.114-0.104 0.279-0.128 0.418-0.060 0.254 0.124 0.533 0.19 0.823 0.19 1.036 0 1.875-0.839 1.875-1.875 0-0.085-0.006-0.168-0.017-0.251l-0.007-0.045-0.984 0.886c-0.144 0.13-0.362 0.127-0.503-0.001l-0.027-0.027-0.903-1.003c-0.139-0.154-0.126-0.391 0.028-0.53l0.954-0.859-0.090-0.018c-0.080-0.014-0.161-0.023-0.243-0.026zM8.964 7.531l0.036 0.028 0.033 0.030 2.16 2.087c0.149 0.144 0.153 0.381 0.009 0.53-0.135 0.14-0.352 0.152-0.501 0.034l-0.029-0.025-2.072-2.002-0.296 0.296 2.002 2.062c0.135 0.139 0.141 0.357 0.018 0.502l-0.026 0.028c-0.139 0.135-0.357 0.141-0.502 0.018l-0.028-0.026-2.088-2.151c-0.228-0.234-0.235-0.602-0.024-0.845l0.030-0.032 0.47-0.47c0.22-0.22 0.563-0.242 0.808-0.065z"></path>
</svg>
