
<svg version="1.1" xmlns="http://www.w3.org/2000/svg" width="24" height="24" viewBox="0 0 24 24">
<path d="M4.129 17.431c1.348 0 2.44 1.092 2.44 2.44 0 0.422-0.107 0.818-0.295 1.164 1.767 1.182 3.848 1.824 6.026 1.824 1.531 0 3.016-0.316 4.384-0.921 0.273-0.121 0.592 0.003 0.712 0.276s-0.003 0.592-0.276 0.712c-1.506 0.665-3.139 1.013-4.821 1.013-2.434 0-4.76-0.731-6.725-2.072l-0.022-0.016-0.123 0.083c-0.377 0.238-0.823 0.376-1.302 0.376-1.348 0-2.44-1.092-2.44-2.44s1.092-2.44 2.44-2.44zM22.786 6.572c0.756 1.588 1.154 3.331 1.154 5.128 0 2.444-0.736 4.778-2.088 6.747 0.289 0.4 0.459 0.893 0.459 1.425 0 1.348-1.092 2.44-2.44 2.44s-2.44-1.092-2.44-2.44c0-1.348 1.092-2.44 2.44-2.44 0.422 0 0.818 0.107 1.164 0.295 1.182-1.767 1.824-3.848 1.824-6.027 0-1.636-0.362-3.22-1.049-4.664-0.128-0.269-0.014-0.591 0.255-0.72s0.591-0.014 0.72 0.255zM19.871 18.511c-0.751 0-1.36 0.609-1.36 1.36s0.609 1.36 1.36 1.36c0.751 0 1.36-0.609 1.36-1.36s-0.609-1.36-1.36-1.36zM4.129 18.511c-0.751 0-1.36 0.609-1.36 1.36s0.609 1.36 1.36 1.36c0.751 0 1.36-0.609 1.36-1.36s-0.609-1.36-1.36-1.36zM15.3 6.15c0.555 0 1.090 0.144 1.562 0.414 0.266 0.152 0.305 0.52 0.078 0.725l-1.349 1.215 0.482 0.535 1.367-1.23c0.213-0.192 0.545-0.137 0.688 0.104l0.020 0.037c0.199 0.418 0.303 0.877 0.303 1.35 0 1.74-1.41 3.15-3.15 3.15-0.364 0-0.72-0.062-1.055-0.181l-0.040-0.015-5.589 5.102c-0.413 0.377-1.045 0.362-1.442-0.025l-0.043-0.045-0.632-0.711c-0.381-0.429-0.347-1.086 0.077-1.473l5.642-5.151-0.012-0.059c-0.029-0.155-0.047-0.312-0.053-0.472l-0.002-0.12c0-1.74 1.41-3.15 3.15-3.15zM15.232 13.163l0.037 0.025 0.035 0.030 2.024 1.881c0.41 0.381 0.447 1.012 0.095 1.438l-0.057 0.064-0.647 0.647c-0.395 0.395-1.028 0.41-1.44 0.042l-0.072-0.071-1.878-2.024c-0.169-0.182-0.158-0.467 0.024-0.636 0.171-0.158 0.432-0.159 0.603-0.008l0.033 0.032 1.882 2.028c0.052 0.052 0.133 0.058 0.191 0.017l0.021-0.017 0.641-0.641c0.050-0.054 0.053-0.135 0.010-0.192l-0.018-0.020-2.024-1.881c-0.182-0.169-0.192-0.454-0.023-0.636 0.148-0.159 0.385-0.187 0.563-0.078zM4.129 1.146c1.348 0 2.44 1.092 2.44 2.44s-1.092 2.44-2.44 2.44c-0.372 0-0.725-0.083-1.040-0.232-1.26 1.803-1.948 3.952-1.948 6.206 0 1.544 0.322 3.041 0.937 4.42 0.122 0.272-0.001 0.592-0.273 0.713s-0.592-0.001-0.713-0.273c-0.676-1.516-1.031-3.164-1.031-4.86 0-2.498 0.77-4.88 2.176-6.874-0.342-0.42-0.548-0.956-0.548-1.54 0-1.348 1.092-2.44 2.44-2.44zM15.3 7.050c-1.243 0-2.25 1.007-2.25 2.25 0 0.229 0.034 0.454 0.101 0.668 0.052 0.167 0.002 0.348-0.126 0.466l-5.842 5.333c-0.061 0.055-0.066 0.149-0.011 0.21l0.625 0.704c0.056 0.061 0.151 0.066 0.212 0.010l5.803-5.297c0.136-0.125 0.335-0.153 0.501-0.072 0.305 0.149 0.64 0.228 0.987 0.228 1.243 0 2.25-1.007 2.25-2.25 0-0.102-0.007-0.202-0.020-0.301l-0.009-0.054-1.181 1.064c-0.173 0.156-0.434 0.153-0.603-0.001l-0.033-0.033-1.084-1.204c-0.166-0.185-0.151-0.469 0.033-0.636l1.145-1.031-0.108-0.022c-0.096-0.017-0.193-0.027-0.292-0.032l-0.099-0.002zM8.357 6.638l0.043 0.034 0.039 0.035 2.592 2.505c0.179 0.173 0.184 0.458 0.011 0.636-0.162 0.168-0.422 0.182-0.602 0.041l-0.035-0.030-2.486-2.402-0.355 0.355 2.402 2.475c0.162 0.167 0.169 0.428 0.022 0.603l-0.031 0.034c-0.167 0.162-0.428 0.169-0.603 0.022l-0.034-0.031-2.505-2.581c-0.273-0.281-0.282-0.722-0.028-1.014l0.036-0.039 0.564-0.564c0.264-0.264 0.675-0.29 0.969-0.078zM11.7 0.060c2.297 0 4.499 0.651 6.394 1.855l0.141 0.092-0.141-0.092c0.445-0.473 1.077-0.768 1.777-0.768 1.348 0 2.44 1.092 2.44 2.44s-1.092 2.44-2.44 2.44c-1.348 0-2.44-1.092-2.44-2.44 0-0.258 0.040-0.506 0.114-0.74-1.73-1.107-3.742-1.706-5.846-1.706-1.452 0-2.864 0.285-4.174 0.831-0.275 0.115-0.591-0.015-0.706-0.291s0.015-0.591 0.291-0.706c1.442-0.601 2.994-0.914 4.59-0.914zM19.871 2.226c-0.751 0-1.36 0.609-1.36 1.36s0.609 1.36 1.36 1.36c0.751 0 1.36-0.609 1.36-1.36s-0.609-1.36-1.36-1.36zM4.129 2.226c-0.751 0-1.36 0.609-1.36 1.36s0.609 1.36 1.36 1.36c0.751 0 1.36-0.609 1.36-1.36s-0.609-1.36-1.36-1.36z"></path>
</svg>
