
<svg version="1.1" xmlns="http://www.w3.org/2000/svg" width="25" height="24" viewBox="0 0 25 24">
<path d="M19.33 0.063c0.975 0 1.765 0.79 1.765 1.765v20.343c0 0.975-0.79 1.765-1.765 1.765h-13.712c-0.975 0-1.765-0.79-1.765-1.765v-20.343c0-0.975 0.79-1.765 1.765-1.765zM19.33 1.2h-13.712c-0.347 0-0.628 0.281-0.628 0.628v20.343c0 0.347 0.281 0.628 0.628 0.628h13.712c0.347 0 0.628-0.281 0.628-0.628v-20.343c0-0.347-0.281-0.628-0.628-0.628zM17.402 8.905c0.644 0 1.167 0.522 1.167 1.167v1.33c0 0.644-0.522 1.167-1.167 1.167h-9.54c-0.644 0-1.167-0.522-1.167-1.167v-1.33c0-0.644 0.522-1.167 1.167-1.167zM17.402 10.042h-9.54c-0.017 0-0.030 0.013-0.030 0.030v1.33c0 0.017 0.013 0.030 0.030 0.030h9.54c0.017 0 0.030-0.013 0.030-0.030v-1.33c0-0.017-0.013-0.030-0.030-0.030zM17.402 4.168c0.644 0 1.167 0.522 1.167 1.167v1.33c0 0.644-0.522 1.167-1.167 1.167h-9.54c-0.644 0-1.167-0.522-1.167-1.167v-1.33c0-0.644 0.522-1.167 1.167-1.167zM17.402 5.305h-9.54c-0.017 0-0.030 0.013-0.030 0.030v1.33c0 0.017 0.013 0.030 0.030 0.030h9.54c0.017 0 0.030-0.013 0.030-0.030v-1.33c0-0.017-0.013-0.030-0.030-0.030zM1.23 2.692c0.041 0 0.082 0.002 0.122 0.006l0.061 0.008 1.518 0.241c0.31 0.049 0.521 0.341 0.472 0.651-0.047 0.295-0.312 0.5-0.604 0.478l-0.046-0.005-1.523-0.242c-0.012 0-0.023 0.008-0.028 0.018l-0.002 0.012 0 16.6c0.002 0.014 0.011 0.024 0.023 0.027l0.012 0.001 1.514-0.241c0.31-0.049 0.601 0.162 0.651 0.472 0.047 0.295-0.142 0.572-0.426 0.641l-0.046 0.009-1.514 0.241c-0.636 0.101-1.234-0.333-1.335-0.969-0.006-0.040-0.011-0.081-0.013-0.122l-0.002-0.061v-16.598c0-0.644 0.522-1.167 1.167-1.167zM24.033 2.376c-0.041 0-0.082 0.002-0.122 0.006l-0.061 0.008-1.518 0.241c-0.31 0.049-0.521 0.341-0.472 0.651 0.047 0.295 0.312 0.5 0.604 0.478l0.046-0.005 1.523-0.242c0.012 0 0.023 0.008 0.028 0.018l0.002 0.012-0 16.6c-0.002 0.014-0.011 0.024-0.023 0.027l-0.012 0.001-1.514-0.241c-0.31-0.049-0.601 0.162-0.651 0.472-0.047 0.295 0.142 0.572 0.426 0.641l0.046 0.009 1.514 0.241c0.636 0.101 1.234-0.333 1.335-0.969 0.006-0.040 0.011-0.081 0.013-0.122l0.002-0.061v-16.598c0-0.644-0.522-1.167-1.167-1.167z"></path>
<path d="M12.474 15.947c-1.221 0-2.211 0.99-2.211 2.211s0.99 2.211 2.211 2.211c1.221 0 2.211-0.99 2.211-2.211s-0.99-2.211-2.211-2.211zM12.474 16.895c0.698 0 1.263 0.566 1.263 1.263s-0.566 1.263-1.263 1.263c-0.698 0-1.263-0.566-1.263-1.263s0.566-1.263 1.263-1.263z"></path>
</svg>
