
<svg version="1.1" xmlns="http://www.w3.org/2000/svg" width="24" height="24" viewBox="0 0 24 24">
<path d="M22.172 0.063c0.952 0 1.727 0.753 1.764 1.696l0.001 0.069v4.787c0 0.314-0.254 0.568-0.568 0.568-0.298 0-0.543-0.23-0.567-0.522l-0.002-0.047v-4.787c0-0.331-0.256-0.603-0.581-0.627l-0.047-0.002h-4.787c-0.314 0-0.568-0.254-0.568-0.568 0-0.298 0.23-0.543 0.522-0.567l0.047-0.002h4.787zM23.368 16.817c0.298 0 0.543 0.23 0.567 0.522l0.002 0.047v4.787c0 0.952-0.753 1.727-1.696 1.764l-0.069 0.001h-4.787c-0.314 0-0.568-0.254-0.568-0.568 0-0.298 0.23-0.543 0.522-0.567l0.047-0.002h4.787c0.331 0 0.603-0.256 0.627-0.581l0.002-0.047v-4.787c0-0.314 0.254-0.568 0.568-0.568zM0.632 16.817c0.298 0 0.543 0.23 0.567 0.522l0.002 0.047v4.787c0 0.331 0.256 0.603 0.581 0.627l0.047 0.002h4.787c0.314 0 0.568 0.254 0.568 0.568 0 0.298-0.23 0.543-0.522 0.567l-0.047 0.002h-4.787c-0.952 0-1.727-0.753-1.764-1.696l-0.001-0.069v-4.787c0-0.314 0.254-0.568 0.568-0.568zM6.615 0.063c0.314 0 0.568 0.254 0.568 0.568 0 0.298-0.23 0.543-0.522 0.567l-0.047 0.002h-4.787c-0.331 0-0.603 0.256-0.627 0.581l-0.002 0.047v4.787c0 0.314-0.254 0.568-0.568 0.568-0.298 0-0.543-0.23-0.567-0.522l-0.002-0.047v-4.787c0-0.952 0.753-1.727 1.696-1.764l0.069-0.001h4.787z"></path>
<path d="M16.968 5.211c0.858 0 1.587 0.626 1.717 1.474l1.047 6.831 0.003 0.022c0.001 0.010 0.002 0.021 0.002 0.031l0 3.8c0 0.959-0.778 1.737-1.737 1.737h-12c-0.959 0-1.737-0.778-1.737-1.737l0-3.8 0.005-0.061 1.046-6.823c0.13-0.848 0.859-1.474 1.717-1.474zM18.789 14.053h-13.579v3.316c0 0.419 0.326 0.761 0.738 0.788l0.052 0.002h12c0.436 0 0.789-0.353 0.789-0.789v-3.316zM9.141 15.632c0.262 0 0.474 0.212 0.474 0.474 0 0.246-0.188 0.449-0.428 0.472l-0.046 0.002h-1.895c-0.262 0-0.474-0.212-0.474-0.474 0-0.246 0.188-0.449 0.428-0.472l0.046-0.002h1.895zM16.843 15.632c0.262 0 0.474 0.212 0.474 0.474 0 0.246-0.188 0.449-0.428 0.472l-0.046 0.002h-5.807c-0.262 0-0.474-0.212-0.474-0.474 0-0.246 0.188-0.449 0.428-0.472l0.046-0.002h5.807zM16.968 6.158h-9.937c-0.39 0-0.721 0.285-0.78 0.67l-0.963 6.278h13.423l-0.962-6.278c-0.056-0.368-0.361-0.644-0.728-0.668l-0.053-0.002z"></path>
</svg>
