<svg version="1.1" xmlns="http://www.w3.org/2000/svg" width="24" height="24" viewBox="0 0 24 24">
<path d="M19.848 1.557c0.2 0 0.386 0.035 0.556 0.106s0.327 0.177 0.468 0.318c0.141 0.141 0.248 0.297 0.318 0.468s0.106 0.356 0.106 0.556v17.988c0 0.2-0.035 0.386-0.106 0.556s-0.177 0.327-0.318 0.468c-0.141 0.141-0.298 0.248-0.468 0.318s-0.356 0.106-0.556 0.106h-8.994c-0.2 0-0.385-0.035-0.556-0.106s-0.327-0.177-0.468-0.318-0.248-0.298-0.318-0.468-0.106-0.356-0.106-0.556v-17.988c0-0.2 0.035-0.386 0.106-0.556s0.177-0.327 0.318-0.468c0.141-0.141 0.298-0.248 0.468-0.318v0 0c0.171-0.071 0.356-0.106 0.556-0.106h8.994zM19.848 2.456h-8.994c-0.183 0-0.321 0.046-0.412 0.138s-0.137 0.229-0.137 0.412v17.988c0 0.183 0.046 0.321 0.137 0.412s0.229 0.137 0.412 0.137h8.994c0.183 0 0.321-0.046 0.412-0.137s0.137-0.229 0.137-0.412v-17.988c0-0.183-0.046-0.321-0.137-0.412s-0.229-0.138-0.412-0.138zM8.356 3.556h-1.749c-0.105 0-0.208 0.011-0.309 0.033-0.087 0.019-0.172 0.046-0.255 0.081s-0.161 0.077-0.235 0.126h-0c-0.080 0.053-0.155 0.115-0.225 0.184-0.134 0.133-0.237 0.287-0.31 0.46-0.076 0.18-0.114 0.368-0.114 0.564v13.99c0 0.196 0.038 0.385 0.114 0.564 0.073 0.173 0.177 0.327 0.31 0.46s0.287 0.237 0.46 0.31c0.18 0.076 0.368 0.114 0.564 0.114h1.749c0.252 0 0.45-0.198 0.45-0.45s-0.198-0.45-0.45-0.45h-1.749c-0.075 0-0.146-0.014-0.214-0.043-0.066-0.028-0.124-0.067-0.175-0.118s-0.090-0.109-0.118-0.175c-0.029-0.068-0.043-0.139-0.043-0.214v-13.99c0-0.045 0.005-0.088 0.015-0.13 0.007-0.028 0.016-0.056 0.028-0.083 0.028-0.066 0.067-0.124 0.118-0.175 0.028-0.028 0.059-0.053 0.092-0.074 0.026-0.017 0.054-0.031 0.083-0.044 0.027-0.012 0.055-0.021 0.084-0.028 0.042-0.010 0.086-0.015 0.13-0.015h1.749c0.252 0 0.45-0.198 0.45-0.45s-0.198-0.45-0.45-0.45zM3.11 5.554h0.999c0.252 0 0.45 0.198 0.45 0.45s-0.198 0.45-0.45 0.45h-0.999c-0.075 0-0.146 0.014-0.214 0.043-0.066 0.028-0.124 0.067-0.175 0.118-0.028 0.028-0.053 0.059-0.074 0.092-0.017 0.026-0.031 0.054-0.044 0.083-0.029 0.068-0.043 0.139-0.043 0.214v9.993c0 0.075 0.014 0.146 0.043 0.214 0.028 0.066 0.067 0.124 0.118 0.175s0.109 0.090 0.175 0.118c0.068 0.029 0.139 0.043 0.214 0.043h0.999c0.252 0 0.45 0.198 0.45 0.45s-0.198 0.45-0.45 0.45h-0.999c-0.196 0-0.384-0.038-0.564-0.114-0.173-0.073-0.327-0.177-0.46-0.31s-0.237-0.287-0.31-0.46c-0.076-0.18-0.114-0.368-0.114-0.564v-9.993c0-0.105 0.011-0.208 0.033-0.309 0.019-0.087 0.046-0.172 0.081-0.255 0.073-0.173 0.177-0.327 0.31-0.46 0.070-0.070 0.145-0.131 0.225-0.184 0.074-0.049 0.152-0.091 0.235-0.126s0.168-0.062 0.255-0.081v0c0.101-0.022 0.204-0.033 0.309-0.033z"></path>
<path d="M15.801 7.732l1.731 1.731c0.178 0.178 0.458 0.178 0.636 0s0.178-0.458 0-0.636l-2.498-2.498c-0.106-0.106-0.212-0.159-0.318-0.159s-0.212 0.053-0.318 0.159l-2.498 2.498c-0.178 0.178-0.178 0.458 0 0.636s0.458 0.178 0.636 0l1.731-1.731v7.626c0 0.252 0.198 0.45 0.45 0.45s0.45-0.198 0.45-0.45v-7.626zM17.436 18.646h-4.377c-0.252 0-0.45-0.198-0.45-0.45s0.198-0.45 0.45-0.45h4.377c0.252 0 0.45 0.198 0.45 0.45s-0.198 0.45-0.45 0.45z"></path>
</svg>
