
<svg version="1.1" xmlns="http://www.w3.org/2000/svg" width="25" height="24" viewBox="0 0 25 24">
<path d="M5.548 11.023c0.503-0.29 1.122-0.29 1.625 0l4.164 2.404c0.503 0.29 0.812 0.827 0.812 1.407v4.808c0 0.581-0.31 1.117-0.812 1.407l-4.164 2.404c-0.503 0.29-1.122 0.29-1.625 0l-4.164-2.404c-0.503-0.29-0.812-0.827-0.812-1.407v-4.808c0-0.581 0.31-1.117 0.812-1.407zM17.771 11.023c0.503-0.29 1.122-0.29 1.625 0l4.164 2.404c0.503 0.29 0.812 0.827 0.812 1.407v4.808c0 0.581-0.31 1.117-0.812 1.407l-4.164 2.404c-0.503 0.29-1.122 0.29-1.625 0l-4.164-2.404c-0.503-0.29-0.812-0.827-0.812-1.407v-4.808c0-0.581 0.31-1.117 0.812-1.407zM6.633 11.958c-0.169-0.097-0.376-0.097-0.545 0l-4.164 2.404c-0.169 0.097-0.272 0.277-0.272 0.472v4.808c0 0.195 0.104 0.375 0.272 0.472l4.164 2.404c0.169 0.097 0.376 0.097 0.545 0l4.164-2.404c0.169-0.097 0.272-0.277 0.272-0.472v-4.808c0-0.195-0.104-0.375-0.272-0.472zM18.856 11.958c-0.169-0.097-0.376-0.097-0.545 0l-4.164 2.404c-0.169 0.097-0.272 0.277-0.272 0.472v4.808c0 0.195 0.104 0.375 0.272 0.472l4.164 2.404c0.169 0.097 0.376 0.097 0.545 0l4.164-2.404c0.169-0.097 0.272-0.277 0.272-0.472v-4.808c0-0.195-0.104-0.375-0.272-0.472zM11.609 0.446c0.503-0.29 1.122-0.29 1.625 0l4.164 2.404c0.503 0.29 0.812 0.827 0.812 1.407v4.808c0 0.581-0.31 1.117-0.812 1.407l-4.164 2.404c-0.503 0.29-1.122 0.29-1.625 0l-4.164-2.404c-0.503-0.29-0.812-0.827-0.812-1.407v-4.808c0-0.581 0.31-1.117 0.812-1.407zM12.694 1.381c-0.169-0.097-0.376-0.097-0.545 0l-4.164 2.404c-0.169 0.097-0.272 0.277-0.272 0.472v4.808c0 0.195 0.104 0.375 0.272 0.472l4.164 2.404c0.169 0.097 0.376 0.097 0.545 0l4.164-2.404c0.169-0.097 0.272-0.277 0.272-0.472v-4.808c0-0.195-0.104-0.375-0.272-0.472z"></path>
<path d="M12.361 2.672l-3.618 2.143c-0.297 0.176-0.293 0.608 0.007 0.778l3.621 2.057c0.139 0.079 0.308 0.078 0.446-0.001l3.579-2.057c0.298-0.171 0.302-0.6 0.007-0.776l-3.582-2.143c-0.142-0.085-0.318-0.085-0.46-0.001zM12.59 3.583l2.694 1.612-2.69 1.546-2.723-1.547 2.72-1.611zM6.061 13.172l-3.618 2.143c-0.297 0.176-0.293 0.608 0.007 0.778l3.621 2.057c0.139 0.079 0.308 0.078 0.446-0.001l3.579-2.057c0.298-0.171 0.302-0.6 0.007-0.776l-3.582-2.143c-0.142-0.085-0.318-0.085-0.46-0.001zM6.289 14.083l2.694 1.612-2.69 1.547-2.723-1.547 2.72-1.611zM18.361 13.172l-3.618 2.143c-0.297 0.176-0.293 0.608 0.007 0.778l3.621 2.057c0.139 0.079 0.308 0.078 0.446-0.001l3.579-2.057c0.298-0.171 0.302-0.6 0.007-0.776l-3.582-2.143c-0.142-0.085-0.318-0.085-0.46-0.001zM18.59 14.083l2.694 1.612-2.69 1.547-2.723-1.547 2.72-1.611z"></path>
</svg>
