<svg version="1.1" xmlns="http://www.w3.org/2000/svg" width="23" height="24" viewBox="0 0 23 24">
<path id="rpm-icon" d="M7.182 17.1l-1.248-0.009-1.281-1.893h-0.807v1.902h-1.044v-5.271h1.824c0.412 0 0.774 0.070 1.086 0.21 0.252 0.112 0.457 0.263 0.615 0.453v0c0.038 0.044 0.072 0.091 0.102 0.141 0.048 0.072 0.089 0.147 0.123 0.225 0.088 0.198 0.132 0.416 0.132 0.654 0 0.252-0.049 0.481-0.147 0.687-0.032 0.070-0.070 0.137-0.114 0.201-0.032 0.048-0.067 0.093-0.105 0.135-0.16 0.188-0.367 0.337-0.621 0.447l1.485 2.118zM9.549 11.829c0.418 0 0.783 0.072 1.095 0.216 0.246 0.112 0.447 0.262 0.603 0.45 0.044 0.050 0.084 0.103 0.12 0.159 0.026 0.042 0.051 0.085 0.075 0.129 0.12 0.232 0.18 0.495 0.18 0.789 0 0.276-0.055 0.526-0.165 0.75v0c-0.026 0.054-0.056 0.107-0.090 0.159-0.036 0.054-0.075 0.106-0.117 0.156-0.158 0.186-0.36 0.336-0.606 0.45-0.312 0.142-0.677 0.213-1.095 0.213h-0.771v1.8h-1.044v-5.271h1.815zM17.535 11.829h-0.792l-1.794 2.727-1.8-2.727h-0.828v5.271h0.987v-3.414l1.344 2.007h0.549l1.341-1.992v3.399h0.993v-5.271zM3.846 12.714v1.599h0.657c0.306 0 0.561-0.066 0.765-0.198 0.080-0.052 0.144-0.114 0.192-0.186 0.076-0.112 0.114-0.251 0.114-0.417 0-0.174-0.041-0.319-0.123-0.435-0.046-0.066-0.106-0.122-0.18-0.168-0.2-0.13-0.456-0.195-0.768-0.195h-0.657zM9.435 14.412c0.326 0 0.587-0.070 0.783-0.21 0.066-0.048 0.121-0.103 0.165-0.165 0.086-0.126 0.129-0.281 0.129-0.465s-0.042-0.339-0.126-0.465c-0.044-0.066-0.1-0.124-0.168-0.174-0.196-0.146-0.457-0.219-0.783-0.219h-0.657v1.698h0.657z"></path>
<path  d="M2.944 9.368c0.036 0.008 0.073 0.012 0.111 0.012l15.4 0.13c0.436 0.004 0.654 0.224 0.654 0.66v8.561c0 0.092-0.016 0.177-0.049 0.255s-0.081 0.149-0.146 0.214c-0.13 0.129-0.287 0.193-0.47 0.192l-16.5-0.122c-0.218-0.002-0.382-0.057-0.491-0.167s-0.164-0.274-0.164-0.493v-9.571c0.095 0.058 0.196 0.11 0.3 0.154 0.129 0.054 0.261 0.096 0.395 0.125 0.157 0.034 0.318 0.051 0.482 0.051h0.477zM2.91 5.94v2.348h-0.443c-0.091 0-0.181-0.010-0.267-0.030-0.064-0.015-0.127-0.036-0.189-0.062-0.14-0.059-0.265-0.143-0.374-0.251-0.060-0.060-0.113-0.125-0.158-0.195-0.036-0.056-0.068-0.115-0.094-0.178s-0.047-0.124-0.062-0.188c-0.020-0.087-0.030-0.176-0.030-0.267 0-0.093 0.010-0.184 0.031-0.272 0.015-0.063 0.035-0.125 0.061-0.186 0.028-0.065 0.060-0.127 0.098-0.186 0.044-0.067 0.095-0.13 0.153-0.189 0.060-0.060 0.124-0.112 0.194-0.157 0.057-0.037 0.117-0.069 0.18-0.095 0.061-0.025 0.122-0.046 0.186-0.061 0.088-0.021 0.179-0.031 0.272-0.031h0.443zM2.91 4.86h-0.443c-0.166 0-0.328 0.017-0.487 0.052v0c-0.133 0.030-0.264 0.071-0.392 0.125s-0.249 0.119-0.363 0.194c-0.127 0.084-0.244 0.18-0.354 0.29-0.108 0.108-0.203 0.224-0.285 0.349-0.077 0.115-0.142 0.239-0.197 0.368-0.054 0.128-0.096 0.259-0.125 0.392-0.035 0.158-0.052 0.32-0.052 0.486 0 0.008 0 0.016 0 0.024-0.002 0.019-0.003 0.039-0.003 0.059v11.409c0 0.239 0.042 0.461 0.126 0.665s0.21 0.391 0.379 0.561c0.337 0.339 0.744 0.511 1.222 0.514l0.973 0.007v1.904c0 0.232 0.041 0.447 0.123 0.645s0.205 0.379 0.369 0.543c0.164 0.164 0.345 0.287 0.543 0.369s0.413 0.123 0.645 0.123h16.859c0.481 0 0.891-0.17 1.231-0.51s0.509-0.751 0.509-1.231l-0.003-3.299c-0-0.302-0.238-0.54-0.541-0.539s-0.54 0.238-0.539 0.541l0.003 3.299c0 0.44-0.22 0.661-0.66 0.661h-16.859c-0.4 0-0.6-0.2-0.6-0.6v-1.896l14.447 0.107c0.242 0.002 0.465-0.039 0.672-0.123s0.395-0.211 0.567-0.381c0.343-0.34 0.514-0.752 0.514-1.235v-8.561c0-0.239-0.042-0.46-0.126-0.664s-0.21-0.391-0.378-0.56c-0.336-0.339-0.743-0.511-1.221-0.515l-14.475-0.122v-6.568c0-0.083 0.015-0.16 0.044-0.23v0c0.029-0.071 0.073-0.135 0.132-0.194s0.123-0.103 0.194-0.132 0.148-0.044 0.23-0.044h11.82v4.020c0 0.122 0.013 0.241 0.038 0.358 0.022 0.101 0.053 0.199 0.094 0.296s0.089 0.187 0.146 0.273c0.062 0.093 0.133 0.18 0.214 0.261s0.168 0.152 0.261 0.214c0.086 0.057 0.177 0.105 0.273 0.146 0.208 0.088 0.426 0.132 0.654 0.132h4.020l-0.004 9.648c-0 0.302 0.237 0.54 0.54 0.54s0.54-0.237 0.54-0.54l0.004-10.176c0-0.004 0-0.008 0-0.012s0-0.008 0-0.011v-0.279c0-0.155-0.056-0.285-0.168-0.392l-5.665-5.376c-0.051-0.058-0.114-0.104-0.186-0.136-0.068-0.030-0.141-0.046-0.221-0.046h-12.36c-0.232 0-0.447 0.041-0.645 0.123s-0.379 0.205-0.543 0.369c-0.164 0.164-0.287 0.345-0.369 0.543s-0.123 0.413-0.123 0.645v3.12zM17.49 1.857l4.113 3.903h-3.513c-0.049 0-0.097-0.006-0.143-0.017-0.031-0.008-0.061-0.018-0.090-0.030-0.072-0.030-0.135-0.073-0.191-0.129s-0.098-0.119-0.129-0.191c-0.012-0.030-0.022-0.059-0.030-0.090-0.011-0.046-0.017-0.094-0.017-0.143v-3.303z"></path>
</svg>
