
<svg version="1.1" xmlns="http://www.w3.org/2000/svg" width="32" height="32" viewBox="0 0 32 32">
<title>icon24copy</title>
<path fill="currentColor" d="M16.005 6.711h-8.561c-1.080 0-1.956 0.876-1.956 1.956v18.333c0 1.080 0.876 1.956 1.956 1.956h12.222c1.080 0 1.956-0.876 1.956-1.956v-14.626c0-0.193-0.076-0.379-0.212-0.516l-4.884-4.929c-0.138-0.139-0.325-0.217-0.521-0.217zM15.698 8.178l4.457 4.498v14.324c0 0.27-0.219 0.489-0.489 0.489h-12.222c-0.27 0-0.489-0.219-0.489-0.489v-18.333c0-0.27 0.219-0.489 0.489-0.489h8.254z"></path>
<path fill="currentColor" d="M24.573 24.678c-0.405 0-0.733-0.328-0.733-0.733 0-0.364 0.266-0.667 0.614-0.724l0.119-0.010h1.205c0.236 0 0.433-0.168 0.479-0.39l0.010-0.099v-18.333c0-0.236-0.168-0.433-0.39-0.479l-0.099-0.010h-12.222c-0.236 0-0.433 0.168-0.479 0.39l-0.010 0.099v0.086c0 0.405-0.328 0.733-0.733 0.733-0.364 0-0.667-0.266-0.724-0.614l-0.010-0.119v-0.086c0-1.020 0.781-1.858 1.778-1.948l0.178-0.008h12.222c1.020 0 1.858 0.781 1.948 1.778l0.008 0.178v18.333c0 1.020-0.781 1.858-1.778 1.948l-0.178 0.008h-1.205z"></path>
<path fill="currentColor" d="M16 6.804c0.364 0 0.667 0.266 0.724 0.614l0.010 0.119v3.574c0 0.236 0.168 0.433 0.39 0.479l0.099 0.010h3.621c0.405 0 0.733 0.328 0.733 0.733 0 0.364-0.266 0.667-0.614 0.724l-0.119 0.010h-3.621c-1.020 0-1.858-0.781-1.948-1.778l-0.008-0.178v-3.574c0-0.405 0.328-0.733 0.733-0.733z"></path>
<path fill="currentColor" d="M17.873 14.656c0.405 0 0.733 0.328 0.733 0.733 0 0.364-0.266 0.667-0.614 0.724l-0.119 0.010h-9.108c-0.405 0-0.733-0.328-0.733-0.733 0-0.364 0.266-0.667 0.614-0.724l0.119-0.010h9.108z"></path>
<path fill="currentColor" d="M15.389 18.322c0.405 0 0.733 0.328 0.733 0.733 0 0.364-0.266 0.667-0.614 0.724l-0.119 0.010h-6.624c-0.405 0-0.733-0.328-0.733-0.733 0-0.364 0.266-0.667 0.614-0.724l0.119-0.010h6.624z"></path>
<path fill="currentColor" d="M13.319 21.989c0.405 0 0.733 0.328 0.733 0.733 0 0.364-0.266 0.667-0.614 0.724l-0.119 0.010h-4.554c-0.405 0-0.733-0.328-0.733-0.733 0-0.364 0.266-0.667 0.614-0.724l0.119-0.010h4.554z"></path>
</svg>
